<?xml version="1.0" standalone="no"?>
<!DOCTYPE svg PUBLIC "-//W3C//DTD SVG 20010904//EN"
 "http://www.w3.org/TR/2001/REC-SVG-20010904/DTD/svg10.dtd">
<svg version="1.0" xmlns="http://www.w3.org/2000/svg"
 width="8333.000000pt" height="8333.000000pt" viewBox="0 0 8333.000000 8333.000000"
 preserveAspectRatio="xMidYMid meet">

<g transform="translate(0.000000,8333.000000) scale(0.100000,-0.100000)"
fill="#000000" stroke="none">
<path d="M32705 54034 c-703 -54 -1307 -215 -1905 -505 l-205 -100 -1244
-4060 c-684 -2232 -1241 -4062 -1237 -4066 4 -4 174 -17 379 -30 602 -36 1047
-81 1512 -154 2416 -377 4633 -1367 6600 -2946 457 -367 793 -670 1260 -1137
460 -461 806 -845 1186 -1319 260 -324 467 -606 1169 -1592 621 -874 661 -932
656 -964 -5 -31 -4 -32 9 -15 14 18 15 18 35 -6 l21 -25 -8 30 c-4 17 -7 37
-7 45 0 16 1229 1733 1460 2042 661 878 1429 1710 2229 2413 2147 1887 4643
3047 7380 3429 423 59 788 93 1370 126 197 12 361 22 362 24 3 2 -2390 7694
-2509 8065 -10 31 -23 40 -192 121 -555 267 -1097 424 -1716 496 -184 21 -696
30 -886 15 -965 -77 -1835 -403 -2609 -976 -354 -262 -751 -655 -1012 -1000
l-61 -80 -1502 -5375 -1503 -5375 -413 -1900 c-228 -1045 -414 -1904 -415
-1910 -2 -37 -62 229 -430 1920 l-411 1890 -1510 5415 -1511 5415 -83 112
c-254 340 -637 719 -1011 999 -699 524 -1521 850 -2403 955 -133 16 -249 21
-485 24 -170 1 -332 1 -360 -1z m510 -914 c505 -29 952 -137 1410 -339 497
-220 999 -582 1365 -985 171 -189 217 -249 234 -309 73 -252 2916 -10450 2914
-10453 -2 -1 -34 32 -72 74 -290 324 -814 846 -1176 1173 -1340 1211 -2816
2148 -4445 2824 -1202 498 -2548 843 -3904 1000 -117 13 -216 27 -219 29 -2 3
454 1499 1014 3325 l1017 3321 76 31 c400 168 902 283 1341 308 198 12 257 12
445 1z m15830 -110 c363 -27 692 -90 1020 -197 166 -54 365 -130 381 -146 16
-16 2066 -6596 2058 -6608 -3 -5 -20 -9 -37 -9 -48 0 -364 -37 -607 -71 -2494
-348 -4831 -1318 -6875 -2853 -386 -290 -757 -596 -1145 -945 -196 -177 -846
-819 -1064 -1051 -65 -69 -115 -116 -112 -105 3 11 658 2360 1457 5220 l1453
5200 44 55 c304 379 745 750 1197 1006 664 375 1477 559 2230 504z"/>
<path d="M28145 50828 c-13 -29 -1016 -2296 -2229 -5037 l-2206 -4984 0 -959
c0 -909 1 -959 18 -954 248 77 904 231 1432 335 1657 326 3415 485 5170 468
579 -6 776 -13 1270 -43 2627 -158 5122 -750 7331 -1737 525 -235 1142 -544
1509 -755 l45 -26 -28 34 c-189 231 -577 605 -932 901 -1032 858 -2332 1610
-3805 2199 -1873 749 -4033 1219 -6370 1384 -619 44 -958 57 -1715 63 -632 5
-1383 -6 -1562 -23 -43 -4 -63 -3 -63 5 0 8 3384 8861 3489 9130 l21 51 -676
0 -675 0 -24 -52z"/>
<path d="M52358 50833 c10 -27 801 -2092 1757 -4591 956 -2498 1736 -4544
1734 -4546 -2 -3 -103 1 -224 7 -316 16 -1942 15 -2280 -1 -1633 -77 -2915
-238 -4275 -538 -2926 -645 -5486 -1892 -7204 -3509 -150 -141 -389 -390 -460
-480 l-31 -40 35 22 c186 114 957 506 1335 678 2274 1041 4814 1656 7515 1819
929 57 1955 60 2880 11 1392 -75 2797 -262 4065 -541 275 -61 673 -159 831
-205 56 -16 105 -29 108 -29 3 0 6 431 6 958 l0 957 -2229 5035 -2228 5035
-676 3 -677 2 18 -47z"/>
<path d="M33291 36458 c-177 -385 -1093 -2430 -1089 -2433 2 -2 357 -7 789
-11 l785 -7 749 1244 c412 684 755 1254 763 1267 l14 22 -986 0 -987 0 -38
-82z"/>
<path d="M24580 34714 c-14 -2 -59 -9 -100 -15 -362 -53 -708 -299 -877 -625
-197 -379 -184 -852 32 -1204 168 -272 429 -459 763 -547 132 -35 400 -44 548
-19 456 78 832 391 973 812 83 247 78 556 -12 794 -153 406 -474 683 -907 781
-82 19 -359 34 -420 23z"/>
<path d="M54585 34630 c-3 -5 -1 -70 4 -143 46 -568 238 -1077 552 -1462 77
-95 257 -267 354 -340 333 -249 744 -397 1246 -451 215 -22 687 -15 874 14
400 63 750 190 1022 372 571 382 931 1062 992 1874 6 71 8 133 5 138 -3 4
-317 8 -699 8 l-694 0 -5 -32 c-3 -18 -8 -60 -11 -93 -29 -279 -164 -581 -340
-760 -224 -227 -564 -331 -935 -284 -372 46 -652 243 -818 575 -69 137 -126
348 -147 537 l-6 57 -694 0 c-450 0 -696 -3 -700 -10z"/>
<path d="M28682 33305 c-486 -580 -893 -1066 -904 -1080 l-19 -25 833 0 833 1
475 569 c261 314 484 581 496 595 l20 26 490 -595 489 -596 833 0 833 0 -23
29 c-13 16 -419 502 -903 1080 l-880 1051 -845 0 -845 0 -883 -1055z"/>
<path d="M14390 29040 l0 -5180 1080 0 1080 0 2 2304 3 2304 1878 -2304 1878
-2304 1379 0 1379 0 -2225 2685 c-1224 1478 -2227 2691 -2229 2698 -3 7 963
1127 2145 2490 1183 1363 2150 2480 2150 2482 0 3 -597 5 -1327 4 l-1328 0
-1850 -2194 -1850 -2193 -5 2191 -5 2192 -1077 3 -1078 2 0 -5180z"/>
<path d="M44066 33883 c63 -186 856 -2516 1763 -5178 l1648 -4840 1435 -3
1435 -2 63 182 c663 1943 3460 10163 3460 10170 0 4 -508 7 -1132 6 l-1131 -3
-1341 -4107 c-738 -2260 -1343 -4108 -1346 -4108 -4 0 -676 2045 -2573 7828
l-129 392 -1134 0 -1133 0 115 -337z"/>
<path d="M30125 31409 c-1351 -88 -2378 -729 -2966 -1853 -545 -1043 -616
-2413 -182 -3546 573 -1498 1894 -2331 3623 -2287 645 17 1152 135 1639 382
235 119 408 236 611 411 487 420 859 1054 1004 1707 l6 27 -980 -2 -981 -3
-33 -76 c-76 -175 -250 -393 -411 -513 -266 -200 -582 -296 -968 -296 -298 1
-530 54 -769 177 -431 223 -732 650 -843 1197 -14 68 -28 158 -32 200 l-6 76
2542 0 2541 0 0 248 c-1 678 -43 1116 -151 1551 -369 1503 -1409 2426 -2914
2586 -178 19 -548 26 -730 14z m465 -1600 c198 -24 366 -73 518 -151 363 -185
608 -514 711 -958 22 -93 51 -298 51 -361 l0 -39 -1516 0 -1517 0 7 73 c11
118 52 304 96 431 192 557 613 914 1180 1000 115 17 354 20 470 5z"/>
<path d="M38601 31409 c-210 -16 -454 -65 -636 -129 -133 -47 -356 -158 -475
-238 -268 -179 -529 -456 -700 -743 -50 -84 -55 -89 -87 -89 l-33 0 0 535 0
535 -1065 0 -1065 0 0 -3710 0 -3710 1065 0 1065 0 0 2199 c0 1455 4 2234 10
2302 64 628 354 1066 818 1233 140 50 261 69 447 70 189 0 271 -11 415 -56
240 -76 424 -215 564 -426 104 -156 165 -311 209 -526 l22 -111 3 -2342 2
-2343 1065 0 1066 0 -4 2558 c-3 2784 0 2597 -58 2922 -163 919 -676 1606
-1418 1900 -355 141 -789 201 -1210 169z"/>
<path d="M56233 31410 c-1135 -84 -2021 -693 -2552 -1757 -274 -549 -427
-1159 -463 -1851 -56 -1097 264 -2194 862 -2953 118 -149 401 -427 545 -535
526 -394 1147 -594 1845 -594 733 0 1380 240 1849 686 112 107 239 254 298
345 l38 59 58 0 57 0 0 -475 0 -475 1065 0 1065 0 0 3710 0 3710 -1065 0
-1065 0 0 -475 0 -475 -59 0 c-58 0 -60 1 -83 38 -123 199 -441 499 -703 662
-236 147 -554 270 -850 329 -238 48 -595 70 -842 51z m989 -1720 c247 -20 465
-88 662 -204 588 -348 952 -1138 923 -2001 -29 -861 -402 -1562 -997 -1874
-248 -130 -566 -190 -862 -163 -388 35 -700 177 -962 437 -308 306 -508 738
-593 1285 -25 164 -25 624 0 795 42 282 115 531 221 750 114 236 225 394 388
550 262 252 576 394 938 424 137 12 153 12 282 1z"/>
<path d="M65851 31409 c-210 -16 -454 -65 -636 -129 -133 -47 -356 -158 -475
-238 -268 -179 -529 -456 -700 -743 -50 -84 -55 -89 -87 -89 l-33 0 0 535 0
535 -1065 0 -1065 0 0 -3710 0 -3710 1065 0 1065 0 0 2199 c0 1455 4 2234 10
2302 64 628 354 1066 818 1233 140 50 261 69 447 70 189 0 271 -11 415 -56
240 -76 424 -215 564 -426 104 -156 165 -311 209 -526 l22 -111 3 -2342 2
-2343 1065 0 1066 0 -4 2558 c-3 2784 0 2597 -58 2922 -163 919 -676 1606
-1418 1900 -355 141 -789 201 -1210 169z"/>
<path d="M23660 27570 l0 -3710 1060 0 1060 0 0 3710 0 3710 -1060 0 -1060 0
0 -3710z"/>
<path d="M45270 19535 l0 -3045 380 0 380 0 2 1020 3 1020 875 -1020 875
-1019 483 -1 c265 0 482 2 482 4 0 2 -447 523 -994 1158 l-994 1153 576 569
c317 313 757 749 977 968 l400 398 -495 0 -495 1 -847 -853 -847 -853 -1 1773
0 1772 -380 0 -380 0 0 -3045z"/>
<path d="M31140 19455 l0 -2966 1318 4 c1434 4 1387 2 1652 62 780 176 1260
686 1341 1427 24 213 -4 480 -70 678 -133 396 -466 719 -906 879 -116 42 -114
56 15 119 182 91 358 237 477 397 107 144 203 363 238 546 157 825 -317 1526
-1181 1745 -280 71 -211 68 -1616 71 l-1268 4 0 -2966z m2425 2275 c193 -22
364 -78 491 -161 213 -139 341 -332 395 -594 18 -87 15 -294 -6 -390 -84 -395
-379 -654 -817 -719 -89 -14 -231 -16 -902 -16 l-796 0 0 945 0 945 773 0
c460 0 808 -4 862 -10z m172 -2536 c288 -42 514 -151 679 -327 123 -131 199
-277 236 -455 27 -130 21 -366 -11 -487 -88 -330 -328 -571 -681 -683 -211
-67 -195 -66 -1157 -70 l-873 -3 0 1020 0 1021 851 0 c718 0 868 -2 956 -16z"/>
<path d="M37765 20810 c-509 -45 -934 -237 -1266 -572 -657 -661 -820 -1807
-384 -2704 359 -739 1069 -1151 1930 -1121 465 17 844 145 1183 401 111 84
291 265 374 377 212 285 353 623 419 1013 27 156 37 507 19 668 -112 1050
-784 1788 -1749 1922 -140 20 -395 27 -526 16z m485 -689 c236 -55 412 -152
581 -321 368 -368 526 -984 404 -1586 -107 -529 -427 -928 -861 -1073 -249
-83 -577 -84 -824 -1 -544 182 -900 763 -900 1468 0 311 56 565 179 817 197
401 522 649 937 715 99 15 386 4 484 -19z"/>
<path d="M42365 20810 c-509 -45 -934 -237 -1266 -572 -657 -661 -820 -1807
-384 -2704 359 -739 1069 -1151 1930 -1121 465 17 844 145 1183 401 111 84
291 265 374 377 212 285 353 623 419 1013 27 156 37 507 19 668 -112 1050
-784 1788 -1749 1922 -140 20 -395 27 -526 16z m485 -689 c236 -55 412 -152
581 -321 368 -368 526 -984 404 -1586 -107 -529 -427 -928 -861 -1073 -249
-83 -577 -84 -824 -1 -544 182 -900 763 -900 1468 0 311 56 565 179 817 197
401 522 649 937 715 99 15 386 4 484 -19z"/>
<path d="M50195 20810 c-330 -30 -615 -131 -832 -294 -88 -67 -233 -223 -287
-309 -207 -331 -234 -782 -68 -1112 102 -203 300 -381 568 -511 171 -83 375
-146 810 -248 443 -105 520 -128 644 -192 208 -107 300 -249 300 -464 0 -391
-332 -635 -840 -617 -153 6 -248 22 -362 61 -258 90 -468 318 -534 580 l-16
66 -384 0 c-271 0 -384 -3 -384 -11 0 -37 45 -223 76 -310 75 -216 183 -395
334 -552 125 -131 237 -214 395 -292 207 -103 420 -161 675 -184 477 -44 914
48 1235 260 93 62 246 206 317 299 62 82 161 281 188 380 68 248 65 518 -10
740 -58 173 -134 293 -273 427 -111 107 -222 183 -388 262 -181 88 -375 148
-819 251 -217 51 -437 107 -489 126 -292 104 -437 294 -402 525 40 257 242
432 554 480 111 17 364 6 462 -20 263 -71 451 -246 531 -496 l22 -70 366 -3
c314 -2 366 0 366 12 0 75 -71 298 -136 428 -217 435 -592 695 -1116 772 -128
19 -383 27 -503 16z"/>
</g>
</svg>
