<?xml version="1.0" standalone="yes"?>
<svg width="1000" height="1000">
<path style="fill:#ffffff; stroke:none;" d="M0 0L0 1000L1000 1000L1000 0L0 0z"/>
<path style="fill:#ffd7ac; stroke:none;" d="M398 205L398 206L405 207L398 205z"/>
<path style="fill:#f4b99b; stroke:none;" d="M577 205L577 206L584 206L577 205z"/>
<path style="fill:#ed701c; stroke:none;" d="M396.059 207.032C391.589 209.42 391.304 215.051 393.742 219C397.968 225.843 414.605 245.745 423.815 240.681C438.282 232.728 413.18 212.493 405.83 208.075C403.05 206.404 399.08 205.417 396.059 207.032z"/>
<path style="fill:#ee721a; stroke:none;" d="M576 207.028C569.116 210.458 556.484 223.033 553.607 230.286C550.805 237.346 558.662 242.779 564.91 240.146C572.043 237.14 585.611 224.02 588.257 217C591.202 209.186 582.975 203.552 576 207.028z"/>
<path style="fill:#f1c998; stroke:none;" d="M584.667 206.333L585.333 206.667L584.667 206.333z"/>
<path style="fill:#febf9c; stroke:none;" d="M589 211L589 215L590 215L589 211z"/>
<path style="fill:#e4935b; stroke:none;" d="M554 229L559 224L554 229z"/>
<path style="fill:#ffceb3; stroke:none;" d="M552 230L553 238L554 238L552 230z"/>
<path style="fill:#fff6d3; stroke:none;" d="M462 240L496 234C487.237 230.323 468.492 232.95 462 240z"/>
<path style="fill:#e28d57; stroke:none;" d="M480 234L480 235L499 235L480 234z"/>
<path style="fill:#ed701c; stroke:none;" d="M491 461L493 461C509.773 428.987 520.474 393.914 535.312 361C546.611 335.935 563.24 316.399 557.37 287C544.344 221.754 448.444 217.255 426.901 279C415.601 311.389 434.317 334.289 447.048 362C461.997 394.539 472.932 430.045 491 461z"/>
<path style="fill:#fec29d; stroke:none;" d="M427 237L426 240L427 237z"/>
<path style="fill:#f2b98c; stroke:none;" d="M560 241L560 242L563 242L560 241z"/>
<path style="fill:#d3824d; stroke:none;" d="M448 250L453 246L448 250z"/>
<path style="fill:#d28954; stroke:none;" d="M440 258L448 250L440 258z"/>
<path style="fill:#ca9c7b; stroke:none;" d="M477 253L477 254L483 253L477 253z"/>
<path style="fill:#ffffff; stroke:none;" d="M472 376L481 376C481 360.047 477.525 339.562 481.303 324.09C483.507 315.065 495.448 314.632 499.697 322.26C502.115 326.602 501 333.213 501 338C501 349.65 498.925 363.747 502 375C512.395 372.712 517.962 352.055 523.38 342.996C530.043 331.854 539.344 321.584 539.961 308C540.371 298.949 540.586 289.288 536.394 281C517.451 243.542 456.105 241.189 443.542 286C440.956 295.226 441.806 305.824 444.254 315C446.835 324.677 454.056 331.953 459.174 340.271C466.049 351.443 469.379 363.293 472 376z"/>
<path style="fill:#db945e; stroke:none;" d="M499 252L499 253L506 254L499 252z"/>
<path style="fill:#fff4ca; stroke:none;" d="M370 260C370.812 265.688 369.139 270.924 375 274C370.772 265.589 373.092 257.299 384 259C380.474 254.965 374.085 258.101 370 260z"/>
<path style="fill:#f07019; stroke:none;" d="M377.019 258.873C371.136 261.183 370.443 269.564 375.228 273.411C381.377 278.354 404.446 283.824 411.656 279.911C416.678 277.184 415.646 269.192 411.366 266.314C406.021 262.72 382.919 256.558 377.019 258.873z"/>
<path style="fill:#ffd5b3; stroke:none;" d="M464 260L467 258L464 260z"/>
<path style="fill:#d87744; stroke:none;" d="M586 261L586 262L604 259L586 261z"/>
<path style="fill:#deb188; stroke:none;" d="M384.667 259.333L385.333 259.667L384.667 259.333z"/>
<path style="fill:#ed701e; stroke:none;" d="M598 259.598C590.191 261.446 575.213 262.383 569.603 268.648C566.842 271.732 568.006 277.524 572.109 278.682C579.126 280.663 588.126 277.98 595 276.489C598.754 275.675 604.729 274.865 607.258 271.697C613.315 264.108 605.557 257.809 598 259.598z"/>
<path style="fill:#ffcea6; stroke:none;" d="M396 262L396 263L400 263L396 262z"/>
<path style="fill:#d97736; stroke:none;" d="M582 280L582 279C577.095 279 561.601 276.888 570.319 268.648C574.343 264.844 580.808 263.982 586 263C580.706 260.934 571.107 263.76 567.603 268.329C564.308 272.626 566.856 279.406 572.015 280.678C575.21 281.466 578.813 280.403 582 280z"/>
<path style="fill:#eca370; stroke:none;" d="M609 263L609 268L610 268L609 263z"/>
<path style="fill:#ffceb1; stroke:none;" d="M456 267L459 264L456 267z"/>
<path style="fill:#e3ad71; stroke:none;" d="M568 267L571 265L568 267z"/>
<path style="fill:#e9b293; stroke:none;" d="M431.333 268.667L431.667 269.333L431.333 268.667z"/>
<path style="fill:#ffc18e; stroke:none;" d="M415 270L415 275L416 275L415 270z"/>
<path style="fill:#e9b196; stroke:none;" d="M430.333 270.667L430.667 271.333L430.333 270.667z"/>
<path style="fill:#fcdab7; stroke:none;" d="M565 270L565 275L566 275L565 270z"/>
<path style="fill:#eab885; stroke:none;" d="M429.333 272.667L429.667 273.333L429.333 272.667z"/>
<path style="fill:#ecb797; stroke:none;" d="M534 277L536 280L534 277z"/>
<path style="fill:#f9b48a; stroke:none;" d="M588 277L588 278L592 278L588 277z"/>
<path style="fill:#ed9768; stroke:none;" d="M446 278L445 282L446 282L446 278z"/>
<path style="fill:#efa976; stroke:none;" d="M403 281L403 282L409 282L403 281z"/>
<path style="fill:#ffd3ac; stroke:none;" d="M442 288L442 292L443 292L442 288z"/>
<path style="fill:#f4bf93; stroke:none;" d="M558 291L558 310L559 310L558 291z"/>
<path style="fill:#e5b899; stroke:none;" d="M423 292L423 296L424 296L423 292z"/>
<path style="fill:#ffd9ba; stroke:none;" d="M441 293L441 307L442 307L441 293z"/>
<path style="fill:#d7814e; stroke:none;" d="M440 294L441 312L442 312L440 294z"/>
<path style="fill:#ffcfa9; stroke:none;" d="M540 294L540 307L541 307L540 294z"/>
<path style="fill:#cb946d; stroke:none;" d="M423 296L423 307L424 307L423 296z"/>
<path style="fill:#fff7e2; stroke:none;" d="M442 304C442.061 326.16 460.165 345.245 469 365L470 365C467.304 349.343 456.704 338.151 449.106 324.961C445.179 318.144 444.96 310.862 442 304z"/>
<path style="fill:#ee7019; stroke:none;" d="M396 306.633C388.636 308.621 375.196 310.75 369.475 315.854C359.691 324.583 371.403 331.06 380 329.112C387.224 327.474 402.294 325.262 407.258 319.431C413.89 311.641 403.266 304.673 396 306.633z"/>
<path style="fill:#e1955b; stroke:none;" d="M576 306L576 307L584 307L576 306z"/>
<path style="fill:#eb711e; stroke:none;" d="M576.109 307.742C570.21 310.279 572.089 318.032 576.214 321.298C582.47 326.253 590.082 324.522 597 326.803C601.585 328.315 606.931 331.771 611.772 328.821C616.762 325.78 615.493 318.139 610.941 315.533C603.545 311.299 584.392 304.18 576.109 307.742z"/>
<path style="fill:#f0b589; stroke:none;" d="M595.667 310.333L596.333 310.667L595.667 310.333z"/>
<path style="fill:#ffcca1; stroke:none;" d="M409 312L409 317L410 317L409 312z"/>
<path style="fill:#ecb48f; stroke:none;" d="M608.667 314.333L609.333 314.667L608.667 314.333z"/>
<path style="fill:#d5a16f; stroke:none;" d="M488 316L488 317L493 317L488 316z"/>
<path style="fill:#eabea3; stroke:none;" d="M367 317L366 320L367 317z"/>
<path style="fill:#f0b082; stroke:none;" d="M494.667 317.333L495.333 317.667L494.667 317.333z"/>
<path style="fill:#e99054; stroke:none;" d="M499 320L499 377L500 377L500 338L499 320z"/>
<path style="fill:#ffe0c6; stroke:none;" d="M481 321L481 376L472 376L472 377L482 377L482 339L481 321z"/>
<path style="fill:#e3894d; stroke:none;" d="M482 321L482 377L483 377L483 339L482 321z"/>
<path style="fill:#f9b17f; stroke:none;" d="M401 322L401 323L404 323L401 322z"/>
<path style="fill:#ffb27d; stroke:none;" d="M398 323L398 324L401 324L398 323z"/>
<path style="fill:#fff8dd; stroke:none;" d="M500 323L500 376C511.886 375.991 512.2 368.264 515 358L514 358C510.031 365.077 510.776 372.224 502 375L500 323z"/>
<path style="fill:#e8b381; stroke:none;" d="M554.333 323.667L554.667 324.333L554.333 323.667z"/>
<path style="fill:#f7c39c; stroke:none;" d="M534 325L533 328L534 325z"/>
<path style="fill:#eeae82; stroke:none;" d="M388.667 326.333L389.333 326.667L388.667 326.333z"/>
<path style="fill:#c97539; stroke:none;" d="M592 326L592 327L604 330L592 326z"/>
<path style="fill:#ebad86; stroke:none;" d="M382.667 328.333L383.333 328.667L382.667 328.333z"/>
<path style="fill:#ffd2ae; stroke:none;" d="M378 331L382 330L378 331z"/>
<path style="fill:#dda375; stroke:none;" d="M370 330L370 331L378 331L370 330z"/>
<path style="fill:#e7a67c; stroke:none;" d="M602 330L602 331L611 331L602 330z"/>
<path style="fill:#e1ac8c; stroke:none;" d="M550.333 332.667L550.667 333.333L550.333 332.667z"/>
<path style="fill:#f7a57f; stroke:none;" d="M549.333 334.667L549.667 335.333L549.333 334.667z"/>
<path style="fill:#f9cc95; stroke:none;" d="M438.333 344.667L438.667 345.333L438.333 344.667z"/>
<path style="fill:#d7986c; stroke:none;" d="M522 344L521 347L522 344z"/>
<path style="fill:#ffd3b2; stroke:none;" d="M518 349L518 352L519 352L520 349L518 349z"/>
<path style="fill:#748ab1; stroke:none;" d="M389 351L389 352L400 352L389 351z"/>
<path style="fill:#7796d7; stroke:none;" d="M384.667 352.333L385.333 352.667L384.667 352.333z"/>
<path style="fill:#0640a1; stroke:none;" d="M367 358C363.421 382.233 351.759 406.309 345.36 430C343.736 436.012 336.791 448.665 338.788 454.682C340.033 458.434 348.021 456.941 351 457.015C363.487 457.321 376.182 461.769 388 465.436C416.421 474.254 442.147 494.237 461.83 516C470.758 525.871 478.826 544.239 490 551C482.108 508.514 468.964 467.826 458.336 426C454.084 409.268 451.305 381.672 438.829 369.171C417.312 347.607 393.186 352.081 367 358z"/>
<path style="fill:#7095ca; stroke:none;" d="M405 352L405 353L408 353L405 352z"/>
<path style="fill:#c4d9ff; stroke:none;" d="M577 352L577 353L588 353L577 352z"/>
<path style="fill:#b1cbe6; stroke:none;" d="M378 353L378 354L381 354L378 353z"/>
<path style="fill:#92a9d3; stroke:none;" d="M410.667 353.333L411.333 353.667L410.667 353.333z"/>
<path style="fill:#6983bc; stroke:none;" d="M574 353L574 354L579 354L574 353z"/>
<path style="fill:#083da3; stroke:none;" d="M492 551C503.578 541.575 510.455 525.824 521.015 515C553.573 481.624 596.183 457 644 457C641.709 434.017 630.169 408.94 623 387C620.592 379.632 619.303 366.459 614.157 360.649C610.221 356.206 602.422 355.556 597 354.54C576.222 350.647 554.251 356.208 540.225 373.001C530.497 384.646 528.929 406.657 524.706 421C516.513 448.828 508.559 476.87 501.526 505C497.869 519.629 492.322 535.889 492 551z"/>
<path style="fill:#7288c1; stroke:none;" d="M592 353L592 354L595 354L592 353z"/>
<path style="fill:#7b93d9; stroke:none;" d="M376.667 354.333L377.333 354.667L376.667 354.333z"/>
<path style="fill:#7a98d6; stroke:none;" d="M413 354L413 355L416 355L413 354z"/>
<path style="fill:#617fb3; stroke:none;" d="M596 354L596 355L600 355L596 354z"/>
<path style="fill:#5d75a5; stroke:none;" d="M369.667 357.333L370.333 357.667L369.667 357.333z"/>
<path style="fill:#a2c4e0; stroke:none;" d="M421.667 357.333L422.333 357.667L421.667 357.333z"/>
<path style="fill:#9cbbda; stroke:none;" d="M608.667 357.333L609.333 357.667L608.667 357.333z"/>
<path style="fill:#a2b7f8; stroke:none;" d="M558.667 358.333L559.333 358.667L558.667 358.333z"/>
<path style="fill:#6787b8; stroke:none;" d="M366.333 360.667L366.667 361.333L366.333 360.667z"/>
<path style="fill:#87a5d7; stroke:none;" d="M389 362L389 363L401 363L389 362z"/>
<path style="fill:#7293c8; stroke:none;" d="M365.333 363.667L365.667 364.333L365.333 363.667z"/>
<path style="fill:#6283a4; stroke:none;" d="M384.667 363.333L385.333 363.667L384.667 363.333z"/>
<path style="fill:#ffffff; stroke:none;" d="M352 446C382.947 449.932 412.662 461.138 438 479.424C449.073 487.416 457.947 498.214 469 506C464.526 475.705 452.433 444.36 443.721 415C440.524 404.227 439.798 387.945 432.697 379.015C422.733 366.484 391.692 354.445 377.499 366.97C372.268 371.587 371.338 382.603 369.341 389C363.461 407.84 356.448 426.773 352 446z"/>
<path style="fill:#697dba; stroke:none;" d="M405 363L405 364L408 364L405 363z"/>
<path style="fill:#495fb2; stroke:none;" d="M582 363L582 364L589 364L582 363z"/>
<path style="fill:#8f9fc3; stroke:none;" d="M576.667 364.333L577.333 364.667L576.667 364.333z"/>
<path style="fill:#ffffff; stroke:none;" d="M514 504C525.624 498.579 535.162 485.723 546 478.344C571.156 461.217 598.802 450.82 629 447C627.405 428.707 618.111 410.665 613.374 393C611.58 386.31 609.946 373.827 605.157 368.703C602.414 365.768 596.746 365.277 593 364.615C578.133 361.988 560.741 366.941 550.482 378.289C542.695 386.903 541.212 403.118 538.14 414C532.7 433.276 527.927 452.802 522.23 472C519.14 482.413 514.471 493.052 514 504z"/>
<path style="fill:#80a2d0; stroke:none;" d="M592.667 364.333L593.333 364.667L592.667 364.333z"/>
<path style="fill:#8ba7d9; stroke:none;" d="M378.667 365.333L379.333 365.667L378.667 365.333z"/>
<path style="fill:#fab895; stroke:none;" d="M469 365L469 368L470 368L469 365z"/>
<path style="fill:#6b8bbc; stroke:none;" d="M571.667 365.333L572.333 365.667L571.667 365.333z"/>
<path style="fill:#91abde; stroke:none;" d="M364.333 366.667L364.667 367.333L364.333 366.667z"/>
<path style="fill:#a2c1f0; stroke:none;" d="M376.667 366.333L377.333 366.667L376.667 366.333z"/>
<path style="fill:#798dbf; stroke:none;" d="M414.667 366.333L415.333 366.667L414.667 366.333z"/>
<path style="fill:#859cd0; stroke:none;" d="M568.667 366.333L569.333 366.667L568.667 366.333z"/>
<path style="fill:#9bb7de; stroke:none;" d="M375.333 368.667L375.667 369.333L375.333 368.667z"/>
<path style="fill:#7ca2e0; stroke:none;" d="M617.333 368.667L617.667 369.333L617.333 368.667z"/>
<path style="fill:#96aeda; stroke:none;" d="M618 371L618 374L619 374L618 371z"/>
<path style="fill:#607cae; stroke:none;" d="M362 373L362 376L363 376L362 373z"/>
<path style="fill:#ffd6a6; stroke:none;" d="M509 374L500 376L500 377C502.668 377 510.608 378.264 509 374z"/>
<path style="fill:#7495cb; stroke:none;" d="M361.333 376.667L361.667 377.333L361.333 376.667z"/>
<path style="fill:#8da0db; stroke:none;" d="M445.333 378.667L445.667 379.333L445.333 378.667z"/>
<path style="fill:#748ac4; stroke:none;" d="M536.333 378.667L536.667 379.333L536.333 378.667z"/>
<path style="fill:#7391b3; stroke:none;" d="M621.333 381.667L621.667 382.333L621.333 381.667z"/>
<path style="fill:#7a9db9; stroke:none;" d="M446.333 382.667L446.667 383.333L446.333 382.667z"/>
<path style="fill:#f1ad8a; stroke:none;" d="M525.333 383.667L525.667 384.333L525.333 383.667z"/>
<path style="fill:#96b6e7; stroke:none;" d="M546 383L546 386L547 386L546 383z"/>
<path style="fill:#7d9dcc; stroke:none;" d="M370.333 384.667L370.667 385.333L370.333 384.667z"/>
<path style="fill:#95b2ee; stroke:none;" d="M534.333 384.667L534.667 385.333L534.333 384.667z"/>
<path style="fill:#8bacd7; stroke:none;" d="M622.333 384.667L622.667 385.333L622.333 384.667z"/>
<path style="fill:#677fbb; stroke:none;" d="M358.333 386.667L358.667 387.333L358.333 386.667z"/>
<path style="fill:#7195c5; stroke:none;" d="M545 386L545 389L546 389L545 386z"/>
<path style="fill:#b0b7ee; stroke:none;" d="M357.333 388.667L357.667 389.333L357.333 388.667z"/>
<path style="fill:#788dcc; stroke:none;" d="M338 389L338 390L353 392C354.78 387.278 341.087 389 338 389z"/>
<path style="fill:#7890be; stroke:none;" d="M628 391L645 390C640.905 388.282 631.084 387.471 628 391z"/>
<path style="fill:#083ea2; stroke:none;" d="M337 390C328.506 421.057 309.871 451.385 297.15 481C293.446 489.624 287.782 498.895 285.681 508C283.86 515.889 285 524.939 285 533C333.951 524.679 378.757 519.24 428 531.475C447.811 536.398 465.011 546.205 484 553C472.698 536.955 451.772 526.323 434 519.115C394.211 502.976 354.499 500 312 500L339.811 427L353 390L337 390z"/>
<path style="fill:#606fb2; stroke:none;" d="M357.333 390.667L357.667 391.333L357.333 390.667z"/>
<path style="fill:#5d7dac; stroke:none;" d="M437.333 390.667L437.667 391.333L437.333 390.667z"/>
<path style="fill:#748cb2; stroke:none;" d="M544.333 390.667L544.667 391.333L544.333 390.667z"/>
<path style="fill:#073ea2; stroke:none;" d="M629 390L670 500C623.793 500 577.665 502.303 536 524.692C522.483 531.956 507.024 540.189 498 553C519.335 545.366 538.501 534.541 561 529.668C592.292 522.891 625.264 521.155 657 525.289C670.496 527.048 683.632 531.026 697 533C697 525.088 698.377 515.723 696.586 508C694.211 497.76 688.098 487.585 683.86 478C675.755 459.668 668.12 440.961 659.248 423C655.158 414.721 652.077 396.416 644.363 391.028C640.791 388.533 633.189 390 629 390z"/>
<path style="fill:#98b7ed; stroke:none;" d="M449.333 392.667L449.667 393.333L449.333 392.667z"/>
<path style="fill:#778fbb; stroke:none;" d="M613.333 392.667L613.667 393.333L613.333 392.667z"/>
<path style="fill:#9eb3ec; stroke:none;" d="M629.333 392.667L629.667 393.333L629.333 392.667z"/>
<path style="fill:#fdb88f; stroke:none;" d="M521.333 393.667L521.667 394.333L521.333 393.667z"/>
<path style="fill:#95b0e7; stroke:none;" d="M367.333 394.667L367.667 395.333L367.333 394.667z"/>
<path style="fill:#7995bd; stroke:none;" d="M438.333 394.667L438.667 395.333L438.333 394.667z"/>
<path style="fill:#f2bd91; stroke:none;" d="M461.333 394.667L461.667 395.333L461.333 394.667z"/>
<path style="fill:#f2a36b; stroke:none;" d="M473 394L473 408L474 408L473 394z"/>
<path style="fill:#f5bd98; stroke:none;" d="M474 394L474 395L508 395L474 394z"/>
<path style="fill:#db7642; stroke:none;" d="M508 394L508 408L509 408L510 394L508 394z"/>
<path style="fill:#6a8ab3; stroke:none;" d="M625.333 394.667L625.667 395.333L625.333 394.667z"/>
<path style="fill:#feffff; stroke:none;" d="M474 395C474 399.335 472.782 406.093 475.742 409.682C479.429 414.152 501.618 413.824 505.486 409.682C508.939 405.984 508 399.633 508 395L474 395z"/>
<path style="fill:#a7c6e5; stroke:none;" d="M630.333 395.667L630.667 396.333L630.333 395.667z"/>
<path style="fill:#849bcf; stroke:none;" d="M334.333 396.667L334.667 397.333L334.333 396.667z"/>
<path style="fill:#89aad7; stroke:none;" d="M614.333 396.667L614.667 397.333L614.333 396.667z"/>
<path style="fill:#8da3cc; stroke:none;" d="M366.333 397.667L366.667 398.333L366.333 397.667z"/>
<path style="fill:#84a4d3; stroke:none;" d="M542.333 397.667L542.667 398.333L542.333 397.667z"/>
<path style="fill:#8b9fd1; stroke:none;" d="M626 397L626 400L627 400L626 397z"/>
<path style="fill:#8fabdd; stroke:none;" d="M333.333 398.667L333.667 399.333L333.333 398.667z"/>
<path style="fill:#7291b0; stroke:none;" d="M439.333 398.667L439.667 399.333L439.333 398.667z"/>
<path style="fill:#aac6eb; stroke:none;" d="M530.333 398.667L530.667 399.333L530.333 398.667z"/>
<path style="fill:#6a87cd; stroke:none;" d="M354.333 399.667L354.667 400.333L354.333 399.667z"/>
<path style="fill:#6884b4; stroke:none;" d="M365.333 400.667L365.667 401.333L365.333 400.667z"/>
<path style="fill:#5d7bc3; stroke:none;" d="M530.333 400.667L530.667 401.333L530.333 400.667z"/>
<path style="fill:#6484b5; stroke:none;" d="M541.333 400.667L541.667 401.333L541.333 400.667z"/>
<path style="fill:#aac1ed; stroke:none;" d="M632.333 400.667L632.667 401.333L632.333 400.667z"/>
<path style="fill:#a4c1e9; stroke:none;" d="M349.333 401.667L349.667 402.333L349.333 401.667z"/>
<path style="fill:#efac7f; stroke:none;" d="M465 403L465 406L466 406L465 403z"/>
<path style="fill:#84a5ce; stroke:none;" d="M441.333 405.667L441.667 406.333L441.333 405.667z"/>
<path style="fill:#7a9bd1; stroke:none;" d="M617.333 405.667L617.667 406.333L617.333 405.667z"/>
<path style="fill:#f5b086; stroke:none;" d="M466.333 406.667L466.667 407.333L466.333 406.667z"/>
<path style="fill:#f3ba8f; stroke:none;" d="M507.333 406.667L507.667 407.333L507.333 406.667z"/>
<path style="fill:#a2bef0; stroke:none;" d="M528.333 406.667L528.667 407.333L528.333 406.667z"/>
<path style="fill:#6f82c4; stroke:none;" d="M629.333 407.667L629.667 408.333L629.333 407.667z"/>
<path style="fill:#4f70a3; stroke:none;" d="M329.333 408.667L329.667 409.333L329.333 408.667z"/>
<path style="fill:#6482be; stroke:none;" d="M442 408L442 411L443 411L442 408z"/>
<path style="fill:#5d7bbb; stroke:none;" d="M453.333 408.667L453.667 409.333L453.333 408.667z"/>
<path style="fill:#ffc498; stroke:none;" d="M515.333 408.667L515.667 409.333L515.333 408.667z"/>
<path style="fill:#96aadd; stroke:none;" d="M539.333 408.667L539.667 409.333L539.333 408.667z"/>
<path style="fill:#859cce; stroke:none;" d="M362.333 410.667L362.667 411.333L362.333 410.667z"/>
<path style="fill:#9bb8e4; stroke:none;" d="M454 410L454 413L455 413L454 410z"/>
<path style="fill:#f5bd98; stroke:none;" d="M514.333 410.667L514.667 411.333L514.333 410.667z"/>
<path style="fill:#6784ae; stroke:none;" d="M527.333 410.667L527.667 411.333L527.333 410.667z"/>
<path style="fill:#7e95c9; stroke:none;" d="M538.333 411.667L538.667 412.333L538.333 411.667z"/>
<path style="fill:#6487bd; stroke:none;" d="M350.333 412.667L350.667 413.333L350.333 412.667z"/>
<path style="fill:#e99054; stroke:none;" d="M478 412L478 413L501 413L478 412z"/>
<path style="fill:#688dd1; stroke:none;" d="M361 413L361 416L362 416L361 413z"/>
<path style="fill:#a7c2f9; stroke:none;" d="M443.333 413.667L443.667 414.333L443.333 413.667z"/>
<path style="fill:#83a2d0; stroke:none;" d="M526.333 413.667L526.667 414.333L526.333 413.667z"/>
<path style="fill:#a4baf3; stroke:none;" d="M344.333 414.667L344.667 415.333L344.333 414.667z"/>
<path style="fill:#a5c1e8; stroke:none;" d="M455.333 414.667L455.667 415.333L455.333 414.667z"/>
<path style="fill:#567bc1; stroke:none;" d="M537 414L537 417L538 417L537 414z"/>
<path style="fill:#7a97c3; stroke:none;" d="M349 415L349 418L350 418L349 415z"/>
<path style="fill:#91a9cf; stroke:none;" d="M444.333 416.667L444.667 417.333L444.333 416.667z"/>
<path style="fill:#a3c0ec; stroke:none;" d="M525 416L525 419L526 419L525 416z"/>
<path style="fill:#5872ab; stroke:none;" d="M656.333 416.667L656.667 417.333L656.333 416.667z"/>
<path style="fill:#6c86b7; stroke:none;" d="M456.333 418.667L456.667 419.333L456.333 418.667z"/>
<path style="fill:#86a4d8; stroke:none;" d="M621.333 418.667L621.667 419.333L621.333 418.667z"/>
<path style="fill:#748bbf; stroke:none;" d="M657.333 418.667L657.667 419.333L657.333 418.667z"/>
<path style="fill:#556caf; stroke:none;" d="M348.333 419.667L348.667 420.333L348.333 419.667z"/>
<path style="fill:#7796cd; stroke:none;" d="M445.333 419.667L445.667 420.333L445.333 419.667z"/>
<path style="fill:#6a7ebd; stroke:none;" d="M633.333 420.667L633.667 421.333L633.333 420.667z"/>
<path style="fill:#809ed0; stroke:none;" d="M658.333 420.667L658.667 421.333L658.333 420.667z"/>
<path style="fill:#7793c3; stroke:none;" d="M622 421L622 424L623 424L622 421z"/>
<path style="fill:#abbbef; stroke:none;" d="M341.333 422.667L341.667 423.333L341.333 422.667z"/>
<path style="fill:#e9a483; stroke:none;" d="M473.333 422.667L473.667 423.333L473.333 422.667z"/>
<path style="fill:#809ed4; stroke:none;" d="M535.333 422.667L535.667 423.333L535.333 422.667z"/>
<path style="fill:#a6bbda; stroke:none;" d="M634.333 422.667L634.667 423.333L634.333 422.667z"/>
<path style="fill:#7b91c2; stroke:none;" d="M446.333 423.667L446.667 424.333L446.333 423.667z"/>
<path style="fill:#a0b4f1; stroke:none;" d="M346.333 424.667L346.667 425.333L346.333 424.667z"/>
<path style="fill:#839fcf; stroke:none;" d="M523.333 424.667L523.667 425.333L523.333 424.667z"/>
<path style="fill:#5a7db5; stroke:none;" d="M458.333 426.667L458.667 427.333L458.333 426.667z"/>
<path style="fill:#809fce; stroke:none;" d="M345.333 428.667L345.667 429.333L345.333 428.667z"/>
<path style="fill:#779bcf; stroke:none;" d="M533 429L533 432L534 432L533 429z"/>
<path style="fill:#90a8d8; stroke:none;" d="M356.333 430.667L356.667 431.333L356.333 430.667z"/>
<path style="fill:#587aba; stroke:none;" d="M625.333 430.667L625.667 431.333L625.333 430.667z"/>
<path style="fill:#7f97dd; stroke:none;" d="M318.333 432.667L318.667 433.333L318.333 432.667z"/>
<path style="fill:#5775b5; stroke:none;" d="M344.333 432.667L344.667 433.333L344.333 432.667z"/>
<path style="fill:#ffae81; stroke:none;" d="M505.333 432.667L505.667 433.333L505.333 432.667z"/>
<path style="fill:#8da8dd; stroke:none;" d="M637.333 432.667L637.667 433.333L637.333 432.667z"/>
<path style="fill:#f8b990; stroke:none;" d="M478.333 434.667L478.667 435.333L478.333 434.667z"/>
<path style="fill:#9db8e7; stroke:none;" d="M645.333 434.667L645.667 435.333L645.333 434.667z"/>
<path style="fill:#a2b7e4; stroke:none;" d="M638 435L638 438L639 438L638 435z"/>
<path style="fill:#80a1d7; stroke:none;" d="M354.333 436.667L354.667 437.333L354.333 436.667z"/>
<path style="fill:#7088b8; stroke:none;" d="M461.333 436.667L461.667 437.333L461.333 436.667z"/>
<path style="fill:#6f89c2; stroke:none;" d="M665.333 436.667L665.667 437.333L665.333 436.667z"/>
<path style="fill:#7895cf; stroke:none;" d="M450 437L450 440L451 440L450 437z"/>
<path style="fill:#6a87c3; stroke:none;" d="M342 438L342 441L343 441L342 438z"/>
<path style="fill:#a4bbed; stroke:none;" d="M627.333 438.667L627.667 439.333L627.333 438.667z"/>
<path style="fill:#88a4d6; stroke:none;" d="M666.333 438.667L666.667 439.333L666.333 438.667z"/>
<path style="fill:#94b0df; stroke:none;" d="M334.333 440.667L334.667 441.333L334.333 440.667z"/>
<path style="fill:#7f9fc8; stroke:none;" d="M530.333 440.667L530.667 441.333L530.333 440.667z"/>
<path style="fill:#aabbf3; stroke:none;" d="M628.333 441.667L628.667 442.333L628.333 441.667z"/>
<path style="fill:#7792c9; stroke:none;" d="M518.333 442.667L518.667 443.333L518.333 442.667z"/>
<path style="fill:#6380c2; stroke:none;" d="M529.333 443.667L529.667 444.333L529.333 443.667z"/>
<path style="fill:#7486c6; stroke:none;" d="M629 444L625 447L625 448L630 448L629 444z"/>
<path style="fill:#7ea1c7; stroke:none;" d="M649.333 444.667L649.667 445.333L649.333 444.667z"/>
<path style="fill:#9ab1d3; stroke:none;" d="M517 445L517 448L518 448L517 445z"/>
<path style="fill:#7c97ce; stroke:none;" d="M641.333 445.667L641.667 446.333L641.333 445.667z"/>
<path style="fill:#a9bee9; stroke:none;" d="M352 446L352 447L356 447L352 446z"/>
<path style="fill:#98adda; stroke:none;" d="M360.667 447.333L361.333 447.667L360.667 447.333z"/>
<path style="fill:#a6bce5; stroke:none;" d="M331.333 448.667L331.667 449.333L331.333 448.667z"/>
<path style="fill:#6280b6; stroke:none;" d="M339.333 448.667L339.667 449.333L339.333 448.667z"/>
<path style="fill:#83a6e8; stroke:none;" d="M365.667 448.333L366.333 448.667L365.667 448.333z"/>
<path style="fill:#869ccd; stroke:none;" d="M453.333 448.667L453.667 449.333L453.333 448.667z"/>
<path style="fill:#a3c2fb; stroke:none;" d="M618 448L618 449L621 449L618 448z"/>
<path style="fill:#9ebfd0; stroke:none;" d="M642 448L642 451L643 451L642 448z"/>
<path style="fill:#6678ba; stroke:none;" d="M369.667 449.333L370.333 449.667L369.667 449.333z"/>
<path style="fill:#7794ce; stroke:none;" d="M465.333 450.667L465.667 451.333L465.333 450.667z"/>
<path style="fill:#7391d7; stroke:none;" d="M608.667 450.333L609.333 450.667L608.667 450.333z"/>
<path style="fill:#6f92bc; stroke:none;" d="M338.333 451.667L338.667 452.333L338.333 451.667z"/>
<path style="fill:#99b0d2; stroke:none;" d="M379.667 451.333L380.333 451.667L379.667 451.333z"/>
<path style="fill:#607cbb; stroke:none;" d="M454 451L454 454L455 454L454 451z"/>
<path style="fill:#7d9cdc; stroke:none;" d="M382.667 452.333L383.333 452.667L382.667 452.333z"/>
<path style="fill:#5b75b0; stroke:none;" d="M309.333 453.667L309.667 454.333L309.333 453.667z"/>
<path style="fill:#99b6de; stroke:none;" d="M466 453L466 456L467 456L466 453z"/>
<path style="fill:#89a1cf; stroke:none;" d="M596.667 453.333L597.333 453.667L596.667 453.333z"/>
<path style="fill:#94a7cf; stroke:none;" d="M337 454L339 457L337 454z"/>
<path style="fill:#98b0e0; stroke:none;" d="M389 454L389 455L392 455L389 454z"/>
<path style="fill:#87a5cb; stroke:none;" d="M526 454L526 457L527 457L526 454z"/>
<path style="fill:#9bbef8; stroke:none;" d="M592.667 454.333L593.333 454.667L592.667 454.333z"/>
<path style="fill:#718bbc; stroke:none;" d="M673.333 454.667L673.667 455.333L673.333 454.667z"/>
<path style="fill:#5d76af; stroke:none;" d="M590.667 455.333L591.333 455.667L590.667 455.333z"/>
<path style="fill:#b0c7e6; stroke:none;" d="M328.333 456.667L328.667 457.333L328.333 456.667z"/>
<path style="fill:#a6bee4; stroke:none;" d="M455.333 456.667L455.667 457.333L455.333 456.667z"/>
<path style="fill:#83a2d8; stroke:none;" d="M514.333 456.667L514.667 457.333L514.333 456.667z"/>
<path style="fill:#7f98c0; stroke:none;" d="M644 456L640 457L640 458L644 456z"/>
<path style="fill:#889dd4; stroke:none;" d="M348 457L348 458L352 458L348 457z"/>
<path style="fill:#4566ab; stroke:none;" d="M352 457L352 458L357 458L352 457z"/>
<path style="fill:#7b97c7; stroke:none;" d="M584.667 457.333L585.333 457.667L584.667 457.333z"/>
<path style="fill:#4d6daa; stroke:none;" d="M632 457L632 458L640 458L632 457z"/>
<path style="fill:#a0bceb; stroke:none;" d="M355 458L355 459L360 459L355 458z"/>
<path style="fill:#5b79b5; stroke:none;" d="M360.667 458.333L361.333 458.667L360.667 458.333z"/>
<path style="fill:#697bbb; stroke:none;" d="M399.667 458.333L400.333 458.667L399.667 458.333z"/>
<path style="fill:#a9bce6; stroke:none;" d="M627 458L627 459L632 459L627 458z"/>
<path style="fill:#607aab; stroke:none;" d="M365 459L365 460L368 460L365 459z"/>
<path style="fill:#acbfea; stroke:none;" d="M513 459L513 462L514 462L513 459z"/>
<path style="fill:#6a82be; stroke:none;" d="M619.667 459.333L620.333 459.667L619.667 459.333z"/>
<path style="fill:#7992b1; stroke:none;" d="M369.667 460.333L370.333 460.667L369.667 460.333z"/>
<path style="fill:#a4c1e9; stroke:none;" d="M326.333 461.667L326.667 462.333L326.333 461.667z"/>
<path style="fill:#8097cd; stroke:none;" d="M373 461L373 462L376 462L373 461z"/>
<path style="fill:#8da8dd; stroke:none;" d="M574.667 461.333L575.333 461.667L574.667 461.333z"/>
<path style="fill:#5275ad; stroke:none;" d="M608 461L608 462L611 462L608 461z"/>
<path style="fill:#587fa8; stroke:none;" d="M305.333 462.667L305.667 463.333L305.333 462.667z"/>
<path style="fill:#839fd1; stroke:none;" d="M457 462L457 465L458 465L457 462z"/>
<path style="fill:#8ab5d8; stroke:none;" d="M524.333 462.667L524.667 463.333L524.333 462.667z"/>
<path style="fill:#8ea4d6; stroke:none;" d="M605.667 462.333L606.333 462.667L605.667 462.333z"/>
<path style="fill:#b2bff3; stroke:none;" d="M325.333 464.667L325.667 465.333L325.333 464.667z"/>
<path style="fill:#86a6d7; stroke:none;" d="M469.333 464.667L469.667 465.333L469.333 464.667z"/>
<path style="fill:#8aa5c3; stroke:none;" d="M598.667 464.333L599.333 464.667L598.667 464.333z"/>
<path style="fill:#7086bf; stroke:none;" d="M387.667 465.333L388.333 465.667L387.667 465.333z"/>
<path style="fill:#85a5d8; stroke:none;" d="M523.333 465.667L523.667 466.333L523.333 465.667z"/>
<path style="fill:#94b4dd; stroke:none;" d="M595.667 465.333L596.333 465.667L595.667 465.333z"/>
<path style="fill:#708dc9; stroke:none;" d="M390.667 466.333L391.333 466.667L390.667 466.333z"/>
<path style="fill:#9bbbee; stroke:none;" d="M592.667 466.333L593.333 466.667L592.667 466.333z"/>
<path style="fill:#819cc7; stroke:none;" d="M470.333 468.667L470.667 469.333L470.333 468.667z"/>
<path style="fill:#9bb6e5; stroke:none;" d="M658.333 468.667L658.667 469.333L658.333 468.667z"/>
<path style="fill:#95b2d4; stroke:none;" d="M522 469L522 472L523 472L522 469z"/>
<path style="fill:#95abd4; stroke:none;" d="M558 469L558 471L560 469L558 469z"/>
<path style="fill:#9fb7e5; stroke:none;" d="M584.667 469.333L585.333 469.667L584.667 469.333z"/>
<path style="fill:#a5c0ef; stroke:none;" d="M301.333 470.667L301.667 471.333L301.333 470.667z"/>
<path style="fill:#6488bc; stroke:none;" d="M400.667 470.333L401.333 470.667L400.667 470.333z"/>
<path style="fill:#8ca7d4; stroke:none;" d="M459.333 470.667L459.667 471.333L459.333 470.667z"/>
<path style="fill:#8d9fcf; stroke:none;" d="M510.333 470.667L510.667 471.333L510.333 470.667z"/>
<path style="fill:#a4b5e9; stroke:none;" d="M521.333 473.667L521.667 474.333L521.333 473.667z"/>
<path style="fill:#99aed9; stroke:none;" d="M321.333 474.667L321.667 475.333L321.333 474.667z"/>
<path style="fill:#86a4da; stroke:none;" d="M509.333 474.667L509.667 475.333L509.333 474.667z"/>
<path style="fill:#6882bd; stroke:none;" d="M461.333 476.667L461.667 477.333L461.333 476.667z"/>
<path style="fill:#93aedd; stroke:none;" d="M473.333 478.667L473.667 479.333L473.333 478.667z"/>
<path style="fill:#7f96cc; stroke:none;" d="M508.333 478.667L508.667 479.333L508.333 478.667z"/>
<path style="fill:#768fd2; stroke:none;" d="M662.333 478.667L662.667 479.333L662.333 478.667z"/>
<path style="fill:#a4bbed; stroke:none;" d="M519.333 480.667L519.667 481.333L519.333 480.667z"/>
<path style="fill:#799ed5; stroke:none;" d="M542 480L543 481L542 480z"/>
<path style="fill:#99b9e0; stroke:none;" d="M462.333 481.667L462.667 482.333L462.333 481.667z"/>
<path style="fill:#92a9db; stroke:none;" d="M474.333 482.667L474.667 483.333L474.333 482.667z"/>
<path style="fill:#5d7cb3; stroke:none;" d="M518 482L518 485L519 485L518 482z"/>
<path style="fill:#7b99cd; stroke:none;" d="M317.333 484.667L317.667 485.333L317.333 484.667z"/>
<path style="fill:#7691c8; stroke:none;" d="M506 485L506 488L507 488L506 485z"/>
<path style="fill:#93a9e5; stroke:none;" d="M294.333 486.667L294.667 487.333L294.333 486.667z"/>
<path style="fill:#8ba0d7; stroke:none;" d="M475.333 486.667L475.667 487.333L475.333 486.667z"/>
<path style="fill:#5f79b4; stroke:none;" d="M517.333 486.667L517.667 487.333L517.333 486.667z"/>
<path style="fill:#9cb6e9; stroke:none;" d="M464.333 488.667L464.667 489.333L464.333 488.667z"/>
<path style="fill:#6889be; stroke:none;" d="M505.333 489.667L505.667 490.333L505.333 489.667z"/>
<path style="fill:#a8c2e5; stroke:none;" d="M666.333 489.667L666.667 490.333L666.333 489.667z"/>
<path style="fill:#879ec8; stroke:none;" d="M465.333 491.667L465.667 492.333L465.333 491.667z"/>
<path style="fill:#7692c1; stroke:none;" d="M477 493L477 496L478 496L477 493z"/>
<path style="fill:#29488b; stroke:none;" d="M466 494L469 505L470 505L466 494z"/>
<path style="fill:#5677aa; stroke:none;" d="M290.333 496.667L290.667 497.333L290.333 496.667z"/>
<path style="fill:#a6b8dc; stroke:none;" d="M478.333 496.667L478.667 497.333L478.333 496.667z"/>
<path style="fill:#6585b8; stroke:none;" d="M503.333 496.667L503.667 497.333L503.333 496.667z"/>
<path style="fill:#7c9bca; stroke:none;" d="M514.333 497.667L514.667 498.333L514.333 497.667z"/>
<path style="fill:#6788bb; stroke:none;" d="M289.333 498.667L289.667 499.333L289.333 498.667z"/>
<path style="fill:#80a5d9; stroke:none;" d="M312 498L317 500L317 499L312 498z"/>
<path style="fill:#516dac; stroke:none;" d="M317 499L317 500L339 500L317 499z"/>
<path style="fill:#88a8c1; stroke:none;" d="M339 499L339 500L347 500L339 499z"/>
<path style="fill:#839fc4; stroke:none;" d="M502.333 499.667L502.667 500.333L502.333 499.667z"/>
<path style="fill:#93acca; stroke:none;" d="M635 499L635 500L643 500L635 499z"/>
<path style="fill:#4f6baa; stroke:none;" d="M643 499L643 500L665 500L643 499z"/>
<path style="fill:#76a2df; stroke:none;" d="M665 499L665 500L670 500L665 499z"/>
<path style="fill:#a3c3ea; stroke:none;" d="M355 500L355 501L360 501L355 500z"/>
<path style="fill:#7aa0e9; stroke:none;" d="M624 500L624 501L627 501L624 500z"/>
<path style="fill:#8aacd9; stroke:none;" d="M364 501L364 502L368 502L364 501z"/>
<path style="fill:#c5e0ff; stroke:none;" d="M513 501L512 508L513 508L513 501z"/>
<path style="fill:#9fb5e6; stroke:none;" d="M613 501L613 502L616 502L613 501z"/>
<path style="fill:#7c95d5; stroke:none;" d="M371 502L371 503L376 503L371 502z"/>
<path style="fill:#a0b3db; stroke:none;" d="M605 502L605 503L608 503L605 502z"/>
<path style="fill:#5876b2; stroke:none;" d="M694.333 502.667L694.667 503.333L694.333 502.667z"/>
<path style="fill:#6984b1; stroke:none;" d="M379 503L379 504L382 504L379 503z"/>
<path style="fill:#7797c8; stroke:none;" d="M501 503L501 506L502 506L501 503z"/>
<path style="fill:#809bca; stroke:none;" d="M600.667 503.333L601.333 503.667L600.667 503.333z"/>
<path style="fill:#9eb9e6; stroke:none;" d="M594 504L594 505L597 505L594 504z"/>
<path style="fill:#7493cc; stroke:none;" d="M389 505L389 506L392 506L389 505z"/>
<path style="fill:#517de0; stroke:none;" d="M469 505L468 507L470 507L469 505z"/>
<path style="fill:#93b4d3; stroke:none;" d="M589 505L589 506L592 506L589 505z"/>
<path style="fill:#7990c4; stroke:none;" d="M394 506L394 507L397 507L394 506z"/>
<path style="fill:#a6c3ef; stroke:none;" d="M584.667 506.333L585.333 506.667L584.667 506.333z"/>
<path style="fill:#6685be; stroke:none;" d="M285.333 507.667L285.667 508.333L285.333 507.667z"/>
<path style="fill:#5b73b1; stroke:none;" d="M398.667 507.333L399.333 507.667L398.667 507.333z"/>
<path style="fill:#7296ca; stroke:none;" d="M500.333 507.667L500.667 508.333L500.333 507.667z"/>
<path style="fill:#88a7d6; stroke:none;" d="M406.667 509.333L407.333 509.667L406.667 509.333z"/>
<path style="fill:#88a9d6; stroke:none;" d="M573 509L573 510L576 510L573 509z"/>
<path style="fill:#486aaa; stroke:none;" d="M697 509L697 533L698 533L697 509z"/>
<path style="fill:#d4e7f8; stroke:none;" d="M698 509L698 533L699 533L698 509z"/>
<path style="fill:#86a0db; stroke:none;" d="M284 510L284 533L285 533L284 510z"/>
<path style="fill:#9cb2e1; stroke:none;" d="M416.667 512.333L417.333 512.667L416.667 512.333z"/>
<path style="fill:#9bbfe3; stroke:none;" d="M482 512L482 515L483 515L482 512z"/>
<path style="fill:#547bb2; stroke:none;" d="M499.333 512.667L499.667 513.333L499.333 512.667z"/>
<path style="fill:#9fbae7; stroke:none;" d="M419.667 513.333L420.333 513.667L419.667 513.333z"/>
<path style="fill:#4c669f; stroke:none;" d="M559 514L559 515L563 514L559 514z"/>
<path style="fill:#a1b7e0; stroke:none;" d="M422.667 514.333L423.333 514.667L422.667 514.333z"/>
<path style="fill:#9eb5e9; stroke:none;" d="M498.333 515.667L498.667 516.333L498.333 515.667z"/>
<path style="fill:#9cb8e8; stroke:none;" d="M550.667 517.333L551.333 517.667L550.667 517.333z"/>
<path style="fill:#6178ac; stroke:none;" d="M431 518L431 519L434 519L431 518z"/>
<path style="fill:#6888bb; stroke:none;" d="M483.333 518.667L483.667 519.333L483.333 518.667z"/>
<path style="fill:#7b96cd; stroke:none;" d="M548.667 518.333L549.333 518.667L548.667 518.333z"/>
<path style="fill:#afc6e6; stroke:none;" d="M439.667 521.333L440.333 521.667L439.667 521.333z"/>
<path style="fill:#7394bf; stroke:none;" d="M497.333 521.667L497.667 522.333L497.333 521.667z"/>
<path style="fill:#6a88c6; stroke:none;" d="M484.333 522.667L484.667 523.333L484.333 522.667z"/>
<path style="fill:#6e8cca; stroke:none;" d="M346 523L346 524L371 524L346 523z"/>
<path style="fill:#7391cf; stroke:none;" d="M608 523L608 524L632 524L608 523z"/>
<path style="fill:#7f99b4; stroke:none;" d="M333 524L333 525L341 525L333 524z"/>
<path style="fill:#9db7d2; stroke:none;" d="M381 524L381 525L384 525L381 524z"/>
<path style="fill:#8da9d1; stroke:none;" d="M595 524L595 525L603 525L595 524z"/>
<path style="fill:#637db8; stroke:none;" d="M643 524L643 525L648 525L643 524z"/>
<path style="fill:#6f8dbf; stroke:none;" d="M322 525L322 526L328 526L322 525z"/>
<path style="fill:#b7d2fd; stroke:none;" d="M388 525L388 526L395 526L388 525z"/>
<path style="fill:#aac1f5; stroke:none;" d="M587 525L587 526L592 526L587 525z"/>
<path style="fill:#5c7ab6; stroke:none;" d="M653 525L653 526L659 526L653 525z"/>
<path style="fill:#7495ca; stroke:none;" d="M314 526L314 527L318 527L314 526z"/>
<path style="fill:#bdcdee; stroke:none;" d="M318 526L318 527L325 527L318 526z"/>
<path style="fill:#9db4e0; stroke:none;" d="M398 526L398 527L403 527L398 526z"/>
<path style="fill:#5270b9; stroke:none;" d="M485 526L485 530L486 530L485 526z"/>
<path style="fill:#6286c4; stroke:none;" d="M496.333 526.667L496.667 527.333L496.333 526.667z"/>
<path style="fill:#a4b9e4; stroke:none;" d="M661 526L661 527L664 527L661 526z"/>
<path style="fill:#7c9ad6; stroke:none;" d="M310.667 527.333L311.333 527.667L310.667 527.333z"/>
<path style="fill:#bcd7ff; stroke:none;" d="M404 527L404 528L408 528L404 527z"/>
<path style="fill:#6b8bc4; stroke:none;" d="M408.667 527.333L409.333 527.667L408.667 527.333z"/>
<path style="fill:#869bdc; stroke:none;" d="M572.667 527.333L573.333 527.667L572.667 527.333z"/>
<path style="fill:#7088c4; stroke:none;" d="M670.667 527.333L671.333 527.667L670.667 527.333z"/>
<path style="fill:#98a6cd; stroke:none;" d="M305.667 528.333L306.333 528.667L305.667 528.333z"/>
<path style="fill:#7581a9; stroke:none;" d="M413.667 528.333L414.333 528.667L413.667 528.333z"/>
<path style="fill:#aab6e8; stroke:none;" d="M674.667 528.333L675.333 528.667L674.667 528.333z"/>
<path style="fill:#7690cb; stroke:none;" d="M299 529L299 530L302 530L299 529z"/>
<path style="fill:#6184be; stroke:none;" d="M561.667 529.333L562.333 529.667L561.667 529.333z"/>
<path style="fill:#86a0d9; stroke:none;" d="M680.667 529.333L681.333 529.667L680.667 529.333z"/>
<path style="fill:#abc8ea; stroke:none;" d="M294 530L294 531L298 531L294 530z"/>
<path style="fill:#9fbde1; stroke:none;" d="M421 530L421 531L424 531L421 530z"/>
<path style="fill:#a7bfeb; stroke:none;" d="M486 530L486 533L487 533L486 530z"/>
<path style="fill:#84a1cd; stroke:none;" d="M557 530L557 531L560 531L557 530z"/>
<path style="fill:#80a1ca; stroke:none;" d="M685 530L685 531L688 531L685 530z"/>
<path style="fill:#89a7e3; stroke:none;" d="M290.667 531.333L291.333 531.667L290.667 531.333z"/>
<path style="fill:#6684c4; stroke:none;" d="M427.667 531.333L428.333 531.667L427.667 531.333z"/>
<path style="fill:#8ba2c1; stroke:none;" d="M430.667 532.333L431.333 532.667L430.667 532.333z"/>
<path style="fill:#a9c6e8; stroke:none;" d="M550.667 532.333L551.333 532.667L550.667 532.333z"/>
<path style="fill:#798fc0; stroke:none;" d="M434.667 533.333L435.333 533.667L434.667 533.333z"/>
<path style="fill:#91aad3; stroke:none;" d="M437 534L437 535L440 535L437 534z"/>
<path style="fill:#87a1da; stroke:none;" d="M494.333 534.667L494.667 535.333L494.333 534.667z"/>
<path style="fill:#87aecb; stroke:none;" d="M518 534L518 536L520 534L518 534z"/>
<path style="fill:#87a1da; stroke:none;" d="M542 534L542 535L545 535L542 534z"/>
<path style="fill:#afc1e5; stroke:none;" d="M446.667 537.333L447.333 537.667L446.667 537.333z"/>
<path style="fill:#91aae0; stroke:none;" d="M533.667 537.333L534.333 537.667L533.667 537.333z"/>
<path style="fill:#697fb9; stroke:none;" d="M450.667 538.333L451.333 538.667L450.667 538.333z"/>
<path style="fill:#89a2d8; stroke:none;" d="M530.667 538.333L531.333 538.667L530.667 538.333z"/>
<path style="fill:#5e7eaf; stroke:none;" d="M493.333 540.667L493.667 541.333L493.333 540.667z"/>
<path style="fill:#a0bbd9; stroke:none;" d="M520.667 542.333L521.333 542.667L520.667 542.333z"/>
<path style="fill:#5679bb; stroke:none;" d="M489 544L489 549L490 549L489 544z"/>
<path style="fill:#4a5c9a; stroke:none;" d="M491 549L489 552L493 552L491 549z"/>
<path style="fill:#9fa7b4; stroke:none;" d="M484 552L484 554L486 554L484 552z"/>
<path style="fill:#afb5e7; stroke:none;" d="M490.667 553.333L491.333 553.667L490.667 553.333z"/>
<path style="fill:#adbece; stroke:none;" d="M497.667 553.333L498.333 553.667L497.667 553.333z"/>
<path style="fill:#93a5d5; stroke:none;" d="M400 561L400 562L423 562L400 561z"/>
<path style="fill:#073ea2; stroke:none;" d="M387 592L406 592L423 562C416.874 562 405.953 559.864 400.429 562.603C394.569 565.509 388.224 585.828 387 592z"/>
<path style="fill:#6383bc; stroke:none;" d="M397.333 566.667L397.667 567.333L397.333 566.667z"/>
<path style="fill:#4d74af; stroke:none;" d="M390 582L389 586L390 586L390 582z"/>
<path style="fill:#496b99; stroke:none;" d="M293 583L293 584L299 584L293 583z"/>
<path style="fill:#073ea2; stroke:none;" d="M290.004 584.742C272.592 591.488 285.401 618.162 302.999 610.991C321.065 603.629 307.396 578.005 290.004 584.742z"/>
<path style="fill:#9cb7e2; stroke:none;" d="M409.333 584.667L409.667 585.333L409.333 584.667z"/>
<path style="fill:#5e81c5; stroke:none;" d="M655 584L655 585L672 585L655 584z"/>
<path style="fill:#5e80c8; stroke:none;" d="M699 584L699 585L715 587C716.786 582.262 702.168 584 699 584z"/>
<path style="fill:#083da3; stroke:none;" d="M655 585C656.708 622.386 714.22 622.585 715 585L699 585C694.729 601.895 675.821 602.521 672 585L655 585z"/>
<path style="fill:#7c99d3; stroke:none;" d="M698 585L698 588L699 588L698 585z"/>
<path style="fill:#a9c0e2; stroke:none;" d="M355 587L355 588L375 588L355 587z"/>
<path style="fill:#073ea2; stroke:none;" d="M335 613L353.83 611.972L365 602.056L376.09 611.972L396 613C391.277 605.86 383.372 593.218 375.829 589.028C359.779 580.111 339.088 598.43 335 613z"/>
<path style="fill:#b6d2f9; stroke:none;" d="M172 589L172 714L173 714L173 627C173 616.104 176.208 599.027 172 589z"/>
<path style="fill:#7692c1; stroke:none;" d="M173 589L173 590L198 590L173 589M243 589L243 590C251.043 590 266.479 587.059 273 592C274.354 588.407 269.55 589.006 267 589L243 589z"/>
<path style="fill:#9dbae2; stroke:none;" d="M406.333 589.667L406.667 590.333L406.333 589.667z"/>
<path style="fill:#7692c1; stroke:none;" d="M528 589L528 590L555 590L528 589M619 589L619 590L646 590L619 589z"/>
<path style="fill:#8197bc; stroke:none;" d="M697.333 589.667L697.667 590.333L697.333 589.667z"/>
<path style="fill:#133a7b; stroke:none;" d="M173 590L173 684C173 689.586 170.153 711.747 176 713L176 712C171.528 706.098 174 693.228 174 686L174 620C174 613.371 171.28 598.935 175.028 593.318C178.185 588.586 191.944 591 197 591L197 631L198 631L198 590L173 590z"/>
<path style="fill:#809acb; stroke:none;" d="M198 590L198 641L199 641C199 626.689 203.508 603.127 198 590z"/>
<path style="fill:#073ea2; stroke:none;" d="M198 641L197 591C192.282 591 178.173 588.632 175.028 592.603C171.427 597.15 174 611.343 174 617L174 685C174 690.948 171.209 706.538 175.028 711.258C178.438 715.472 192.982 713 198 713L198 659C210.103 669.505 219.539 684.636 229.75 697C233.597 701.657 237.582 709.117 243.039 711.972C250.765 716.014 266.356 713 275 713C267.778 695.916 249.528 680.26 237.75 666C233.958 661.409 224.463 653.467 225.167 647.015C225.855 640.718 233.892 637.265 237.715 632.995C248.842 620.567 266.508 605.332 273 590C264.804 590 249.411 587.026 242.17 591.028C236.701 594.05 232.467 601.253 228.576 606C219.238 617.392 209.7 632.052 198 641z"/>
<path style="fill:#9eb2cd; stroke:none;" d="M386.333 590.667L386.667 591.333L386.333 590.667z"/>
<path style="fill:#073ea2; stroke:none;" d="M528 590C536.033 620.05 547.757 649.685 558.136 679C561.099 687.371 563.326 705.316 569.703 711.397C573.7 715.207 597.735 714.7 602.722 712.397C609.576 709.231 612.522 688.748 614.861 682C625.429 651.514 637.191 621.03 646 590C639.862 590 624.664 587.214 619.727 591.028C614.455 595.1 612.556 609.807 610.485 616C603.097 638.081 590.32 663.854 588 687L579.925 666L562.424 613L554.351 591.028L528 590z"/>
<path style="fill:#8fb0dd; stroke:none;" d="M618.333 590.667L618.667 591.333L618.333 590.667z"/>
<path style="fill:#6e83b2; stroke:none;" d="M673.333 590.667L673.667 591.333L673.333 590.667z"/>
<path style="fill:#637cb4; stroke:none;" d="M310.333 591.667L310.667 592.333L310.333 591.667z"/>
<path style="fill:#8ea2c5; stroke:none;" d="M351 591L352 592L351 591z"/>
<path style="fill:#8495cd; stroke:none;" d="M645 591L645 594L646 594L645 591z"/>
<path style="fill:#7f94c9; stroke:none;" d="M714 591L714 594L715 594L714 591z"/>
<path style="fill:#5984b9; stroke:none;" d="M282.333 592.667L282.667 593.333L282.333 592.667z"/>
<path style="fill:#99aade; stroke:none;" d="M281 594L281 601L282 601L281 594z"/>
<path style="fill:#839fc7; stroke:none;" d="M311.333 594.667L311.667 595.333L311.333 594.667z"/>
<path style="fill:#809fce; stroke:none;" d="M529.333 594.667L529.667 595.333L529.333 594.667z"/>
<path style="fill:#6981b1; stroke:none;" d="M617.333 594.667L617.667 595.333L617.333 594.667z"/>
<path style="fill:#aac4e5; stroke:none;" d="M713.333 595.667L713.667 596.333L713.333 595.667z"/>
<path style="fill:#7b9fd9; stroke:none;" d="M382 596L383 597L382 596z"/>
<path style="fill:#90ade5; stroke:none;" d="M689.667 597.333L690.333 597.667L689.667 597.333z"/>
<path style="fill:#6e85c8; stroke:none;" d="M681 598L681 599L689 599L681 598z"/>
<path style="fill:#7192bd; stroke:none;" d="M311.333 599.667L311.667 600.333L311.333 599.667z"/>
<path style="fill:#5879ae; stroke:none;" d="M615.333 600.667L615.667 601.333L615.333 600.667z"/>
<path style="fill:#90acdc; stroke:none;" d="M642.333 600.667L642.667 601.333L642.333 600.667z"/>
<path style="fill:#8ca9e1; stroke:none;" d="M533.333 606.667L533.667 607.333L533.333 606.667z"/>
<path style="fill:#6d7ca3; stroke:none;" d="M560.333 606.667L560.667 607.333L560.333 606.667z"/>
<path style="fill:#768abf; stroke:none;" d="M613.333 606.667L613.667 607.333L613.333 606.667z"/>
<path style="fill:#7e95b5; stroke:none;" d="M286.667 609.333L287.333 609.667L286.667 609.333z"/>
<path style="fill:#6f87c7; stroke:none;" d="M561.333 609.667L561.667 610.333L561.333 609.667z"/>
<path style="fill:#6b87af; stroke:none;" d="M293 612L293 613L299 613L293 612z"/>
<path style="fill:#babfdc; stroke:none;" d="M333.333 612.667L333.667 613.333L333.333 612.667z"/>
<path style="fill:#658abf; stroke:none;" d="M334 612C337.514 616.022 347.909 614 353 614L353 613L334 612z"/>
<path style="fill:#819dcc; stroke:none;" d="M562.333 612.667L562.667 613.333L562.333 612.667z"/>
<path style="fill:#6389c8; stroke:none;" d="M376 613L376 614L396 614L376 613z"/>
<path style="fill:#8e9fd5; stroke:none;" d="M679 613L679 614L689 614L679 613z"/>
<path style="fill:#6080b3; stroke:none;" d="M637 614L637 617L638 617L637 614z"/>
<path style="fill:#718eba; stroke:none;" d="M610.333 615.667L610.667 616.333L610.333 615.667z"/>
<path style="fill:#a5bae5; stroke:none;" d="M537.333 618.667L537.667 619.333L537.333 618.667z"/>
<path style="fill:#92b6f0; stroke:none;" d="M538.333 621.667L538.667 622.333L538.333 621.667z"/>
<path style="fill:#7c90c2; stroke:none;" d="M565.333 621.667L565.667 622.333L565.333 621.667z"/>
<path style="fill:#cdddff; stroke:none;" d="M360 622L360 623L368 623L360 622z"/>
<path style="fill:#073ea2; stroke:none;" d="M406 685L382 685C372.604 705.093 347.633 693.586 346 675L406 675C406 659.393 406.252 643.466 392.961 632.518C367.365 611.434 323.498 626.642 321.09 661C319.797 679.434 324.047 699.13 341 709.39C363.568 723.05 401.718 713.566 406 685z"/>
<path style="fill:#7793bb; stroke:none;" d="M371 623L371 624L374 624L371 623z"/>
<path style="fill:#869dc6; stroke:none;" d="M458.667 623.333L459.333 623.667L458.667 623.333z"/>
<path style="fill:#073ea2; stroke:none;" d="M440 637L440 625L415 625L415 713L440 713C440 695.327 438.181 676.555 440.174 659C440.91 652.523 445.374 645.994 452 644.423C460.818 642.332 468.608 649.941 470.471 658C474.337 674.727 471 695.827 471 713L495 713L495 667C495 658.502 495.979 649.147 493.038 641C483.845 615.539 454.275 620.671 440 637M706 702L706 713L730 713L730 625L706 625L706 636C698.308 630.603 692.707 625 683 623.44C626.458 614.354 622.636 719.265 682 714.91C693.003 714.102 697.223 706.684 706 702z"/>
<path style="fill:#89a3c8; stroke:none;" d="M683.667 623.333L684.333 623.667L683.667 623.333z"/>
<path style="fill:#073ea2; stroke:none;" d="M767 637L767 625L742 625L742 713L766 713C766 695.857 763.727 676.867 766.934 660C768.382 652.387 773.272 644.226 782 644.188C790.43 644.15 795.864 651.427 797.482 659C801.042 675.653 798 695.968 798 713L822 713L822 667C822 659.688 823.223 651.087 821.211 644C816.283 626.635 796.33 618.041 780 625.519C774.302 628.128 771.334 632.85 767 637z"/>
<path style="fill:#8399ca; stroke:none;" d="M798.667 623.333L799.333 623.667L798.667 623.333z"/>
<path style="fill:#a6c0f9; stroke:none;" d="M284 624L284 625L310 625L284 624z"/>
<path style="fill:#8ca4e2; stroke:none;" d="M376.667 624.333L377.333 624.667L376.667 624.333z"/>
<path style="fill:#a6c0f9; stroke:none;" d="M414 624L414 625L440 625L414 624z"/>
<path style="fill:#7f9cd4; stroke:none;" d="M566.333 624.667L566.667 625.333L566.333 624.667z"/>
<path style="fill:#4e71b1; stroke:none;" d="M666.667 624.333L667.333 624.667L666.667 624.333z"/>
<path style="fill:#a7bffb; stroke:none;" d="M705 624L705 625L731 625L705 624z"/>
<path style="fill:#a4c1fb; stroke:none;" d="M742 624L742 625L767 625L742 624z"/>
<path style="fill:#dae9ff; stroke:none;" d="M283 625L283 714L284 714L284 652L283 625z"/>
<path style="fill:#073ea2; stroke:none;" d="M284 625L284 713L309 713L309 625L284 625z"/>
<path style="fill:#7d9dcc; stroke:none;" d="M309 625L309 714L310 714L310 652L309 625z"/>
<path style="fill:#6685be; stroke:none;" d="M348.667 625.333L349.333 625.667L348.667 625.333z"/>
<path style="fill:#7393ce; stroke:none;" d="M414 625L414 714L440 714L440 713L415 713L415 652L414 625z"/>
<path style="fill:#89acd6; stroke:none;" d="M662.667 625.333L663.333 625.667L662.667 625.333z"/>
<path style="fill:#5d86b2; stroke:none;" d="M705 625L705 636L706 636L705 625z"/>
<path style="fill:#5d76af; stroke:none;" d="M730 625L730 713L706 713C706 709.116 707.581 702.982 703 702L703 703L705 714L731 714L731 652L730 625z"/>
<path style="fill:#8ca7d6; stroke:none;" d="M741 625L741 714L742 714L742 652L741 625z"/>
<path style="fill:#92a7d6; stroke:none;" d="M382.667 626.333L383.333 626.667L382.667 626.333z"/>
<path style="fill:#829dca; stroke:none;" d="M568.333 630.667L568.667 631.333L568.333 630.667z"/>
<path style="fill:#8899cf; stroke:none;" d="M207 631L208 632L207 631z"/>
<path style="fill:#7e99c8; stroke:none;" d="M391 631L392 632L391 631z"/>
<path style="fill:#5e7dbd; stroke:none;" d="M605.333 631.667L605.667 632.333L605.333 631.667z"/>
<path style="fill:#788fc3; stroke:none;" d="M542.333 632.667L542.667 633.333L542.333 632.667z"/>
<path style="fill:#839dd0; stroke:none;" d="M647 638L648 639L647 638z"/>
<path style="fill:#244179; stroke:none;" d="M225 647L226 647L232 639C227.727 640.218 225.87 642.699 225 647z"/>
<path style="fill:#9abce1; stroke:none;" d="M359 642L359 643L370 643L359 642z"/>
<path style="fill:#fffeff; stroke:none;" d="M347 660L382 660C381.464 637.185 347.208 637.059 347 660z"/>
<path style="fill:#5d76ae; stroke:none;" d="M601.333 643.667L601.667 644.333L601.333 643.667z"/>
<path style="fill:#7e9aca; stroke:none;" d="M644 643L645 644L644 643z"/>
<path style="fill:#5e7cb0; stroke:none;" d="M682 643L682 644L688 644L682 643z"/>
<path style="fill:#839dd0; stroke:none;" d="M450.667 644.333L451.333 644.667L450.667 644.333z"/>
<path style="fill:#688cbe; stroke:none;" d="M494 644L494 648L495 648L494 644z"/>
<path style="fill:#ffffff; stroke:none;" d="M679 644.638C653.986 651.871 662.593 701.889 692 693.057C715.864 685.89 707.094 636.515 679 644.638z"/>
<path style="fill:#526fb5; stroke:none;" d="M376 646L379 649L376 646z"/>
<path style="fill:#627ebd; stroke:none;" d="M600.333 646.667L600.667 647.333L600.333 646.667z"/>
<path style="fill:#6b93ce; stroke:none;" d="M694.667 646.333L695.333 646.667L694.667 646.333z"/>
<path style="fill:#c3d6ff; stroke:none;" d="M444 650L447 647L444 650z"/>
<path style="fill:#97b0e8; stroke:none;" d="M626 647L626 650L627 650L626 647z"/>
<path style="fill:#8eade3; stroke:none;" d="M574.333 648.667L574.667 649.333L574.333 648.667z"/>
<path style="fill:#8ea6d4; stroke:none;" d="M822 648L822 714L823 714L823 669L822 648z"/>
<path style="fill:#8eaee9; stroke:none;" d="M495 650L495 714L496 714L496 670L495 650z"/>
<path style="fill:#5279b4; stroke:none;" d="M641.333 650.667L641.667 651.333L641.333 650.667z"/>
<path style="fill:#6889be; stroke:none;" d="M441.333 652.667L441.667 653.333L441.333 652.667z"/>
<path style="fill:#5678b5; stroke:none;" d="M575.333 652.667L575.667 653.333L575.333 652.667z"/>
<path style="fill:#93a1e0; stroke:none;" d="M405.333 653.667L405.667 654.333L405.333 653.667z"/>
<path style="fill:#8db1e1; stroke:none;" d="M549.333 653.667L549.667 654.333L549.333 653.667z"/>
<path style="fill:#617ece; stroke:none;" d="M640.333 653.667L640.667 654.333L640.333 653.667z"/>
<path style="fill:#c3d7ef; stroke:none;" d="M469 654L469 714L470 714L470 673L469 654z"/>
<path style="fill:#a7c8e7; stroke:none;" d="M321 655L321 658L322 658L321 655z"/>
<path style="fill:#d2ecff; stroke:none;" d="M796 655C796 673.616 799.314 695.881 795 714C798.399 711.03 797 704.241 797 700C797 687.271 800.907 666.694 796 655z"/>
<path style="fill:#9dc2ff; stroke:none;" d="M346 656L346 660L347 660L346 656z"/>
<path style="fill:#848cb1; stroke:none;" d="M440.333 656.667L440.667 657.333L440.333 656.667z"/>
<path style="fill:#7f95c4; stroke:none;" d="M666.333 656.667L666.667 657.333L666.333 656.667z"/>
<path style="fill:#80a1cc; stroke:none;" d="M767.333 656.667L767.667 657.333L767.333 656.667z"/>
<path style="fill:#3559a3; stroke:none;" d="M470 657L470 713L471 713L471 675L470 657z"/>
<path style="fill:#7691c0; stroke:none;" d="M639.333 657.667L639.667 658.333L639.333 657.667z"/>
<path style="fill:#7e9bc7; stroke:none;" d="M406 658L406 664L407 664L406 658z"/>
<path style="fill:#d7eaff; stroke:none;" d="M767 658L767 714L768 714L768 676L767 658z"/>
<path style="fill:#2f5691; stroke:none;" d="M797 658L797 713L798 713L798 676L797 658z"/>
<path style="fill:#809acb; stroke:none;" d="M198 659L198 714L199 714C199 696.604 195.968 675.936 200 659L198 659z"/>
<path style="fill:#718fcb; stroke:none;" d="M665.333 659.667L665.667 660.333L665.333 659.667z"/>
<path style="fill:#7492d0; stroke:none;" d="M346 660L346 661L382 661C372.44 656.989 356.387 660 346 660z"/>
<path style="fill:#6886ba; stroke:none;" d="M578.333 661.667L578.667 662.333L578.333 661.667z"/>
<path style="fill:#607fc0; stroke:none;" d="M320 662L320 673L321 673L320 662z"/>
<path style="fill:#9bb4dc; stroke:none;" d="M621.333 662.667L621.667 663.333L621.333 662.667z"/>
<path style="fill:#2e4c88; stroke:none;" d="M766 662L766 713L767 713C767 698.689 771.508 675.127 766 662z"/>
<path style="fill:#a6bee2; stroke:none;" d="M705 663L705 673L706 673L705 663z"/>
<path style="fill:#2a4e9a; stroke:none;" d="M406 664L406 675L346 675L346 676L407 676L406 664z"/>
<path style="fill:#7995c7; stroke:none;" d="M594.333 664.667L594.667 665.333L594.333 664.667z"/>
<path style="fill:#8199d9; stroke:none;" d="M638 664L638 674L639 674L638 664z"/>
<path style="fill:#7695cc; stroke:none;" d="M664 664L664 672L665 672L664 664z"/>
<path style="fill:#a3b8e3; stroke:none;" d="M553.333 665.667L553.667 666.333L553.333 665.667z"/>
<path style="fill:#a3c1e7; stroke:none;" d="M593 666L593 669L594 669L593 666z"/>
<path style="fill:#9aabe1; stroke:none;" d="M554.333 668.667L554.667 669.333L554.333 668.667z"/>
<path style="fill:#6e81bb; stroke:none;" d="M581.333 670.667L581.667 671.333L581.333 670.667z"/>
<path style="fill:#8babd4; stroke:none;" d="M592.333 670.667L592.667 671.333L592.333 670.667z"/>
<path style="fill:#718eb6; stroke:none;" d="M582.333 673.667L582.667 674.333L582.333 673.667z"/>
<path style="fill:#a1bff5; stroke:none;" d="M617.333 674.667L617.667 675.333L617.333 674.667z"/>
<path style="fill:#80a2d0; stroke:none;" d="M346 676L346 680L347 680L346 676z"/>
<path style="fill:#7b95c6; stroke:none;" d="M590.333 676.667L590.667 677.333L590.333 676.667z"/>
<path style="fill:#6482b4; stroke:none;" d="M321.333 678.667L321.667 679.333L321.333 678.667z"/>
<path style="fill:#7188be; stroke:none;" d="M558.333 679.667L558.667 680.333L558.333 679.667z"/>
<path style="fill:#a4badf; stroke:none;" d="M321.333 680.667L321.667 681.333L321.333 680.667z"/>
<path style="fill:#758dcd; stroke:none;" d="M585.333 682.667L585.667 683.333L585.333 682.667z"/>
<path style="fill:#8aa0d1; stroke:none;" d="M614.333 682.667L614.667 683.333L614.333 682.667z"/>
<path style="fill:#889bd3; stroke:none;" d="M322.333 683.667L322.667 684.333L322.333 683.667z"/>
<path style="fill:#758dd5; stroke:none;" d="M323.333 686.667L323.667 687.333L323.333 686.667z"/>
<path style="fill:#73a3d1; stroke:none;" d="M586.667 686.333L587.333 686.667L586.667 686.333z"/>
<path style="fill:#7fa1e0; stroke:none;" d="M641.333 686.667L641.667 687.333L641.333 686.667z"/>
<path style="fill:#939ecb; stroke:none;" d="M561.333 688.667L561.667 689.333L561.333 688.667z"/>
<path style="fill:#93b2de; stroke:none;" d="M690.667 693.333L691.333 693.667L690.667 693.333z"/>
<path style="fill:#617fb3; stroke:none;" d="M372.667 694.333L373.333 694.667L372.667 694.333z"/>
<path style="fill:#7f99cc; stroke:none;" d="M563.333 694.667L563.667 695.333L563.333 694.667z"/>
<path style="fill:#8eadd9; stroke:none;" d="M610.333 694.667L610.667 695.333L610.333 694.667z"/>
<path style="fill:#869eda; stroke:none;" d="M680 694L680 695L689 695L680 694z"/>
<path style="fill:#9eb6da; stroke:none;" d="M362 695L362 696L369 696L362 695z"/>
<path style="fill:#9dace3; stroke:none;" d="M565.333 700.667L565.667 701.333L565.333 700.667z"/>
<path style="fill:#5c7ac0; stroke:none;" d="M566.333 702.667L566.667 703.333L566.333 702.667z"/>
<path style="fill:#a5bde1; stroke:none;" d="M606.333 706.667L606.667 707.333L606.333 706.667z"/>
<path style="fill:#9ab3e9; stroke:none;" d="M605.333 709.667L605.667 710.333L605.333 709.667z"/>
<path style="fill:#5d80ba; stroke:none;" d="M275 712L243 713L243 714L268 714L275 712z"/>
<path style="fill:#afbfd8; stroke:none;" d="M569.333 712.667L569.667 713.333L569.333 712.667z"/>
<path style="fill:#5d7fbc; stroke:none;" d="M604 712L570 713L570 714L596 714L604 712z"/>
<path style="fill:#5f7fbc; stroke:none;" d="M173 713L173 714L198 714L173 713z"/>
<path style="fill:#5d7fbc; stroke:none;" d="M284 713L284 714L309 714L284 713z"/>
<path style="fill:#7e8cd3; stroke:none;" d="M350.667 713.333L351.333 713.667L350.667 713.333z"/>
<path style="fill:#9eb6e4; stroke:none;" d="M379.667 713.333L380.333 713.667L379.667 713.333z"/>
<path style="fill:#5d80b6; stroke:none;" d="M470 713L470 714L495 714L470 713z"/>
<path style="fill:#85a0cb; stroke:none;" d="M664.667 713.333L665.333 713.667L664.667 713.333z"/>
<path style="fill:#607ebe; stroke:none;" d="M742 713L742 714L767 714L742 713z"/>
<path style="fill:#5f7ebe; stroke:none;" d="M797 713L797 714L822 714L797 713z"/>
<path style="fill:#4f669c; stroke:none;" d="M355 714L355 715L359 715L355 714z"/>
<path style="fill:#7286b9; stroke:none;" d="M373 714L373 715L376 715L373 714z"/>
<path style="fill:#9cbbf2; stroke:none;" d="M685 714L685 715L688 715L685 714z"/>
<path style="fill:#b2c2f3; stroke:none;" d="M358 715L358 716L368 716L358 715z"/>
<path style="fill:#b1c8f1; stroke:none;" d="M670 715L670 716L680 716L670 715z"/>
<path style="fill:#446092; stroke:none;" d="M543 729L543 802L552 802L552 801L544 801L544 730L552 730L543 729z"/>
<path style="fill:#91a7cc; stroke:none;" d="M552 729L552 759L554 771L552 729z"/>
<path style="fill:#bfd6ff; stroke:none;" d="M374 730L374 731L403 731L374 730z"/>
<path style="fill:#0b3b9f; stroke:none;" d="M544 730L544 801L552 801L552 778C563.487 787.944 567.237 802 584 802L569.075 783L563.617 774L584 751C568.112 751 563.243 761.275 552 771L552 730L544 730z"/>
<path style="fill:#a8c0e2; stroke:none;" d="M373 731L373 802L374 802L374 753L373 731z"/>
<path style="fill:#08419b; stroke:none;" d="M374 731L374 802C386.747 802 405.938 805.619 416.996 798.147C428.547 790.341 428.373 769.102 413 766C415.677 763.034 419.24 760.756 420.91 756.985C433.883 727.705 389.552 731 374 731z"/>
<path style="fill:#86a1ce; stroke:none;" d="M406.667 731.333L407.333 731.667L406.667 731.333z"/>
<path style="fill:#a9c1e5; stroke:none;" d="M412.667 733.333L413.333 733.667L412.667 733.333z"/>
<path style="fill:#fcffff; stroke:none;" d="M383 739L384 761C390.864 761 401.776 763.063 407.981 759.821C415.107 756.096 414.544 744.989 407.981 741.089C401.236 737.082 390.547 739 383 739z"/>
<path style="fill:#cfecff; stroke:none;" d="M383 741L383 761L384 761L383 741z"/>
<path style="fill:#8ca9d1; stroke:none;" d="M422.333 744.667L422.667 745.333L422.333 744.667z"/>
<path style="fill:#486c9c; stroke:none;" d="M422 746L422 751L423 751L422 746z"/>
<path style="fill:#95aee4; stroke:none;" d="M413 747L413 753L414 753L413 747z"/>
<path style="fill:#4c71b8; stroke:none;" d="M450 750L450 751L460 751L450 750z"/>
<path style="fill:#a3bfef; stroke:none;" d="M460.667 750.333L461.333 750.667L460.667 750.333z"/>
<path style="fill:#9aaee3; stroke:none;" d="M504.667 750.333L505.333 750.667L504.667 750.333z"/>
<path style="fill:#4c6cb7; stroke:none;" d="M506 750L506 751L515 751L506 750z"/>
<path style="fill:#a2bbe4; stroke:none;" d="M515 750L515 751L518 751L515 750z"/>
<path style="fill:#5b7cbf; stroke:none;" d="M598 750L598 751L609 751L598 750z"/>
<path style="fill:#829dcc; stroke:none;" d="M422.333 751.667L422.667 752.333L422.333 751.667z"/>
<path style="fill:#093f99; stroke:none;" d="M446 751.653C416.344 760.907 432.315 811.919 464 801.776C494.997 791.854 478.639 741.468 446 751.653z"/>
<path style="fill:#0a3ea3; stroke:none;" d="M502 751.613C471.973 759.713 486.691 810.654 518 802.072C536.605 796.972 541.733 770.544 528.674 757.213C522.202 750.606 510.692 749.269 502 751.613z"/>
<path style="fill:#093e9e; stroke:none;" d="M591 775C597.612 778.484 608.494 778.833 613.667 784.394C618.967 790.094 610.316 795.459 605 794.862C597.157 793.981 594.722 787.007 586 787C588.882 805.465 620.624 810.046 624.517 790C628.511 769.435 602.525 777.841 596.971 765.957C594.823 761.362 600.967 757.367 605 757.558C609.441 757.768 612.282 761.358 614 765L623 765C621.735 753.355 602.86 744.272 593.558 753.434C587.713 759.19 590.757 767.998 591 775z"/>
<path style="fill:#0f377c; stroke:none;" d="M591 754C587.231 760.25 584.147 769.528 592 774C589.361 766.758 589.753 760.958 593 754L591 754z"/>
<path style="fill:#4b6cb1; stroke:none;" d="M602 757L602 758L607 758L602 757z"/>
<path style="fill:#829cb7; stroke:none;" d="M620 757L621 758L620 757z"/>
<path style="fill:#a9bfee; stroke:none;" d="M451 758L451 759L459 759L451 758z"/>
<path style="fill:#afc8f1; stroke:none;" d="M506 758L506 759L514 759L506 758z"/>
<path style="fill:#7493c2; stroke:none;" d="M588 758L589 759L588 758z"/>
<path style="fill:#6986c2; stroke:none;" d="M608.667 758.333L609.333 758.667L608.667 758.333z"/>
<path style="fill:#ffffff; stroke:none;" d="M449.004 759.742C431.436 766.537 440.726 801.806 461 793.852C479.821 786.468 470.333 751.493 449.004 759.742z"/>
<path style="fill:#feffff; stroke:none;" d="M504.015 759.858C485.84 767.413 496.282 801.557 516.985 793.437C535.227 786.282 525.195 751.053 504.015 759.858z"/>
<path style="fill:#809fd8; stroke:none;" d="M407 760L408 761L407 760z"/>
<path style="fill:#5271a7; stroke:none;" d="M490 760L489 763L490 760z"/>
<path style="fill:#acc3e5; stroke:none;" d="M383 761L383 762L406 762L383 761z"/>
<path style="fill:#5273ba; stroke:none;" d="M595.333 763.667L595.667 764.333L595.333 763.667z"/>
<path style="fill:#5f84c8; stroke:none;" d="M413.333 764.667L413.667 765.333L413.333 764.667z"/>
<path style="fill:#7894d5; stroke:none;" d="M478.333 764.667L478.667 765.333L478.333 764.667z"/>
<path style="fill:#adbfe5; stroke:none;" d="M586 764L586 767L587 767L586 764z"/>
<path style="fill:#bccff0; stroke:none;" d="M468 765L469 769L470 769L468 765z"/>
<path style="fill:#8fa9da; stroke:none;" d="M534.333 766.667L534.667 767.333L534.333 766.667z"/>
<path style="fill:#7390ae; stroke:none;" d="M525.333 768.667L525.667 769.333L525.333 768.667z"/>
<path style="fill:#7e9ed7; stroke:none;" d="M383 769L383 770L405 770L383 769z"/>
<path style="fill:#8095ce; stroke:none;" d="M470.333 769.667L470.667 770.333L470.333 769.667z"/>
<path style="fill:#bed5f7; stroke:none;" d="M383 770L383 794L405 794L405 793L384 793L383 770z"/>
<path style="fill:#fcfffb; stroke:none;" d="M384 770L384 793C391.362 793 403.334 795.278 409.981 791.821C417.898 787.704 417.737 775.458 409.981 771.318C403.298 767.75 391.425 770 384 770z"/>
<path style="fill:#99acd4; stroke:none;" d="M440.333 770.667L440.667 771.333L440.333 770.667z"/>
<path style="fill:#a6bced; stroke:none;" d="M485 770L485 780L486 780L485 770z"/>
<path style="fill:#95b1e1; stroke:none;" d="M535.333 770.667L535.667 771.333L535.333 770.667z"/>
<path style="fill:#839ac4; stroke:none;" d="M601.667 770.333L602.333 770.667L601.667 770.333z"/>
<path style="fill:#4f6fa2; stroke:none;" d="M480 771L480 780L481 780L480 771z"/>
<path style="fill:#6a90d1; stroke:none;" d="M430 772L430 780L431 780L430 772z"/>
<path style="fill:#7896d4; stroke:none;" d="M526 773L526 782L527 782L526 773z"/>
<path style="fill:#9cb9d9; stroke:none;" d="M613.667 773.333L614.333 773.667L613.667 773.333z"/>
<path style="fill:#6885bf; stroke:none;" d="M595.667 777.333L596.333 777.667L595.667 777.333z"/>
<path style="fill:#738bc7; stroke:none;" d="M425 778L425 785L426 785L425 778z"/>
<path style="fill:#8dabc7; stroke:none;" d="M552 778L552 802L553 802L554 778L552 778z"/>
<path style="fill:#8fabdb; stroke:none;" d="M597 778L597 779L600 779L597 778z"/>
<path style="fill:#5a73b6; stroke:none;" d="M602.667 779.333L603.333 779.667L602.667 779.333z"/>
<path style="fill:#a5c2e0; stroke:none;" d="M480.333 780.667L480.667 781.333L480.333 780.667z"/>
<path style="fill:#6a82a4; stroke:none;" d="M440.333 781.667L440.667 782.333L440.333 781.667z"/>
<path style="fill:#8499ce; stroke:none;" d="M470 781L470 784L471 784L470 781z"/>
<path style="fill:#8fb0d1; stroke:none;" d="M525.333 782.667L525.667 783.333L525.333 782.667z"/>
<path style="fill:#8594b3; stroke:none;" d="M624.333 782.667L624.667 783.333L624.333 782.667z"/>
<path style="fill:#456097; stroke:none;" d="M470 784L469 787L470 784z"/>
<path style="fill:#9cbaee; stroke:none;" d="M479.333 784.667L479.667 785.333L479.333 784.667z"/>
<path style="fill:#bdc8da; stroke:none;" d="M558 784L560 787L558 784z"/>
<path style="fill:#9cb5de; stroke:none;" d="M586 786L586 787L595 787L586 786z"/>
<path style="fill:#91a8d2; stroke:none;" d="M489.333 790.667L489.667 791.333L489.333 790.667z"/>
<path style="fill:#8798c4; stroke:none;" d="M624.333 790.667L624.667 791.333L624.333 790.667z"/>
<path style="fill:#7086c0; stroke:none;" d="M405 793L405 794L408 794L405 793z"/>
<path style="fill:#3256aa; stroke:none;" d="M383 794L383 795L403 795L383 794z"/>
<path style="fill:#8290d7; stroke:none;" d="M505.667 794.333L506.333 794.667L505.667 794.333z"/>
<path style="fill:#83a1d7; stroke:none;" d="M513 794L513 795L516 795L513 794z"/>
<path style="fill:#607ebc; stroke:none;" d="M610.667 794.333L611.333 794.667L610.667 794.333z"/>
<path style="fill:#4c6db2; stroke:none;" d="M494 797L497 799L494 797z"/>
<path style="fill:#7f8dbe; stroke:none;" d="M445 801L445 802L448 802L445 801z"/>
<path style="fill:#8aa0d1; stroke:none;" d="M500.667 801.333L501.333 801.667L500.667 801.333z"/>
<path style="fill:#b4d1fd; stroke:none;" d="M584 801L573 802L573 803L584 801z"/>
<path style="fill:#748fc4; stroke:none;" d="M596.667 801.333L597.333 801.667L596.667 801.333z"/>
<path style="fill:#657fb8; stroke:none;" d="M613 801L613 802L616 802L613 801z"/>
<path style="fill:#b6d4ee; stroke:none;" d="M374 802L374 803L405 803L374 802z"/>
<path style="fill:#9ab0e2; stroke:none;" d="M448.667 802.333L449.333 802.667L448.667 802.333z"/>
<path style="fill:#7b9cd2; stroke:none;" d="M504 802L504 803L507 803L504 802z"/>
<path style="fill:#b5d2fa; stroke:none;" d="M543 802L543 803L553 803L543 802z"/>
</svg>
